<?xml version="1.0" encoding="utf-8"?>
<!-- Generator: Adobe Illustrator 25.1.0, SVG Export Plug-In . SVG Version: 6.00 Build 0)  -->
<svg version="1.1" id="_x39_bd8837e-6a32-469b-9c65-eb2a44b6ad9f"
	 xmlns="http://www.w3.org/2000/svg" xmlns:xlink="http://www.w3.org/1999/xlink" x="0px" y="0px" viewBox="0 0 712.1 380.7"
	 style="enable-background:new 0 0 712.1 380.7;" xml:space="preserve">
<style type="text/css">
	.st0{opacity:0.1;fill:#6C63FF;enable-background:new    ;}
	.st1{fill:url(#SVGID_1_);}
	.st2{fill:#535461;}
	.st3{fill:#D6D6E3;}
	.st4{fill:#A8A8A8;}
	.st5{fill:#6C63FF;}
	.st6{opacity:0.1;}
	.st7{fill:#FFFFFF;}
	.st8{fill:#575988;}
	.st9{fill:#FA595F;}
	.st10{fill:#FFD037;}
	.st11{fill:url(#SVGID_2_);}
	.st12{opacity:8.000000e-02;}
	.st13{fill:url(#SVGID_3_);}
	.st14{fill:url(#SVGID_4_);}
	.st15{fill:url(#SVGID_5_);}
	.st16{opacity:5.000000e-02;}
	.st17{fill:url(#SVGID_6_);}
	.st18{fill:url(#SVGID_7_);}
	.st19{fill:url(#SVGID_8_);}
	.st20{fill:url(#SVGID_9_);}
	.st21{fill:url(#SVGID_10_);}
	.st22{fill:url(#SVGID_11_);}
	.st23{fill:url(#SVGID_12_);}
	.st24{fill:url(#SVGID_13_);}
	.st25{fill:url(#SVGID_14_);}
	.st26{fill:url(#SVGID_15_);}
	.st27{fill:url(#SVGID_16_);}
	.st28{fill:url(#SVGID_17_);}
	.st29{fill:url(#SVGID_18_);}
	.st30{fill:url(#SVGID_19_);}
	.st31{fill:url(#SVGID_20_);}
	.st32{fill:url(#SVGID_21_);}
	.st33{fill:url(#SVGID_22_);}
	.st34{fill:url(#SVGID_23_);}
	.st35{fill:url(#SVGID_24_);}
	.st36{opacity:5.000000e-02;fill:url(#SVGID_25_);enable-background:new    ;}
	.st37{fill:#F7C4A7;}
	.st38{opacity:8.000000e-02;enable-background:new    ;}
	.st39{opacity:0.1;enable-background:new    ;}
	.st40{opacity:5.000000e-02;enable-background:new    ;}
	.st41{fill:#6A5C99;}
	.st42{fill:#632652;}
</style>
<path class="st0" d="M599.4,74.6c4.7,31.6,41,58.1,75.4,75.8c11.5,5.9,23.9,12.1,31.1,21.8c8.9,11.9,7.3,26,1.6,36.7
	c-10.3,19.5-33.5,31.9-60.2,32.2c-23.1,0.3-47.8-7.7-70.7-6.8c-38.4,1.5-63.7,27.4-80,54.8c-11.5,19.4-22.7,42.1-48.4,46.9
	c-18.1,3.4-39.5-3.3-57.6-13.5c-8.7-4.9-17.4-10.8-26.9-12.9c-5.7-1.3-11.3-1.1-16.7-0.6c-49,5-81.4,41.4-131.3,44
	c-33.7,1.7-70.6-12.7-100.9-33.2s-55-46.8-78.4-73.1c-16.6-18.7-33.6-39.2-36.1-60.5c-2.7-22.5,12.2-41.4,33.2-50.8
	S80.9,125,107,127c32.7,2.5,67.5,9.5,95.7,0.5c19.2-6.1,33.1-19,48-30.2c25-18.8,54.1-33.4,83.3-47.7C362,36,390.5,22.5,422.5,15
	c22.7-5.3,46.9-3.5,70.2-6.6c15.2-2,27.9-8.2,43.9-8.5c19.7-0.4,44,5.7,56.3,23.4C604.7,40.3,596.9,57.8,599.4,74.6z"/>
<linearGradient id="SVGID_1_" gradientUnits="userSpaceOnUse" x1="410.7035" y1="-444.9561" x2="410.7035" y2="-108.1295" gradientTransform="matrix(1 0 0 -1 -44.49 -105.1469)">
	<stop  offset="0" style="stop-color:#808080;stop-opacity:0.25"/>
	<stop  offset="0.54" style="stop-color:#808080;stop-opacity:0.12"/>
	<stop  offset="1" style="stop-color:#808080;stop-opacity:0.1"/>
</linearGradient>
<path class="st1" d="M506.4,6.2l-43.8-1.9L437.3,3v0H437h-0.4v0l-136.2,7.7h-11.3l-1.3,33.4l21.9,5.5l13.3,48l-60.5,85.1L226,202.4
	v18.7l21.9,15.1l1.3,69.1l6.6,0.9v-0.7l3.3,0.5v0.3l129.8,31l5.5,2.6l11.4-5l91.9-37.7L506.4,6.2z M366.9,220.7L366.9,220.7
	l35.5-21.4l0,0L366.9,220.7z M243.6,229.6l9.6,6.6v0.4L243.6,229.6z"/>
<polygon class="st2" points="261.1,237.6 390.6,260.8 371.3,245.4 360.4,235.8 247,219.9 241.9,223.1 "/>
<polygon class="st3" points="241.9,223.1 369.4,244 370.1,222.2 333.5,212.1 260.4,203.5 239.3,203.5 "/>
<polygon class="st3" points="334.2,99.3 464.3,105.2 464.3,87.9 455.3,49.2 450.8,46.4 320.7,49.2 "/>
<polygon class="st3" points="303.4,12.3 297,12.3 295.7,45.5 316.9,51 329.7,98.8 271.3,183.5 236.1,203 236.1,221.7 257.2,236.7 
	258.5,305.5 264.9,306.4 263.7,238.1 242.5,222.2 241.9,203 275.8,183.9 335.4,99.3 322.6,51 301.5,44.6 303.4,12.3 "/>
<polygon class="st2" points="298.3,12.3 291.9,12.3 290.6,45.5 311.7,51 324.5,98.8 266.2,183.5 231,203 231,221.7 252.1,236.7 
	253.4,305.5 259.8,306.4 258.5,238.1 237.4,222.2 236.7,203 272,183.9 330.3,99.3 317.5,51 296.3,44.6 298.3,12.3 "/>
<polygon class="st4" points="297.9,42.1 301.2,45.3 319.1,51.2 461.4,48.5 447.6,45.5 432.9,41 434.8,37.3 "/>
<polygon class="st5" points="273.9,185.3 404,200.3 430.3,160.7 466.2,103.8 334.2,99.3 "/>
<g class="st6">
	<polygon class="st7" points="341.2,115.6 429,120.6 383.5,184.4 298.3,175.3 	"/>
</g>
<g class="st6">
	<polygon class="st7" points="347.3,120.3 351.1,120.5 349.1,123.3 345.4,122.9 	"/>
</g>
<g class="st6">
	<polygon class="st7" points="347.9,146.7 351.8,146.9 349.8,149.7 346,149.3 	"/>
</g>
<g class="st6">
	<polygon class="st7" points="369.1,123.5 372.9,123.7 370.9,126.5 367.2,126.1 	"/>
</g>
<g class="st6">
	<polygon class="st7" points="409.4,124.8 413.3,125 411.3,127.9 407.6,127.4 	"/>
</g>
<g class="st6">
	<polygon class="st7" points="355,128.5 358.8,128.7 356.8,131.5 353.1,131.1 	"/>
</g>
<g class="st6">
	<polygon class="st7" points="369.1,156.2 372.9,156.4 370.9,159.3 367.2,158.9 	"/>
</g>
<g class="st6">
	<polygon class="st7" points="334.4,140.3 338.3,140.5 336.3,143.3 332.6,142.9 	"/>
</g>
<g class="st6">
	<polygon class="st7" points="393.4,123.5 397.3,123.7 395.3,126.5 391.5,126.1 	"/>
</g>
<g class="st6">
	<polygon class="st7" points="362.7,138.9 366.5,139.2 364.5,142 360.8,141.6 	"/>
</g>
<g class="st6">
	<polygon class="st7" points="358.2,121.6 362,121.9 360,124.7 356.3,124.3 	"/>
</g>
<g class="st6">
	<polygon class="st7" points="378,137.6 381.9,137.8 379.9,140.6 376.1,140.2 	"/>
</g>
<g class="st6">
	<polygon class="st7" points="382.5,123.5 386.4,123.7 384.4,126.5 380.6,126.1 	"/>
</g>
<g class="st6">
	<polygon class="st7" points="342.1,129.8 346,130 344,132.9 340.3,132.5 	"/>
</g>
<polygon class="st3" points="239.3,203.5 366.2,221.7 401.2,200 274.2,184.6 "/>
<polygon class="st2" points="263,235.4 263,306.4 388.6,337.3 390.6,263.6 385.4,256.7 362.4,252.6 "/>
<ellipse class="st8" cx="279.4" cy="191.2" rx="5.4" ry="2.3"/>
<ellipse class="st9" cx="283.8" cy="196.2" rx="5.4" ry="2.3"/>
<ellipse class="st10" cx="268.5" cy="194.8" rx="5.4" ry="2.3"/>
<ellipse class="st8" cx="337.7" cy="199.4" rx="5.4" ry="2.3"/>
<ellipse class="st10" cx="326.8" cy="203.5" rx="5.4" ry="2.3"/>
<ellipse class="st4" cx="306.3" cy="196.7" rx="8" ry="2.7"/>
<ellipse class="st9" cx="343.5" cy="204.4" rx="5.4" ry="2.3"/>
<path class="st4" d="M308.5,196.2h-3.8l-3.3-9.1c-0.5-1.4,0.7-2.8,2.6-3.1c0.3-0.1,0.6-0.1,0.9-0.1l0,0c2,0,3.6,1.2,3.6,2.6
	L308.5,196.2z"/>
<ellipse class="st4" cx="364" cy="203.9" rx="8" ry="2.7"/>
<path class="st4" d="M366.2,203.5h-3.8l-3.3-9.1c-0.5-1.4,0.7-2.8,2.6-3.1c0.3-0.1,0.6-0.1,0.9-0.1l0,0c2,0,3.6,1.2,3.6,2.6
	L366.2,203.5z"/>
<polygon class="st2" points="302.8,12.3 434.8,4.6 431.6,38.7 299.5,43.3 "/>
<polygon class="st3" points="434.2,4.6 495,7.8 486.7,297.3 393.5,339.8 387,336.6 386.7,260.8 366.2,244.5 366.2,221.7 
	402.1,199.4 463,103.3 454.3,48.5 458.8,48.5 430.3,41.4 "/>
<polygon class="st2" points="439.9,5 501.5,7.8 493.1,297.3 393.1,339.6 393.1,260.8 372.6,244.5 372.6,221.7 408.5,199.4 
	469.4,103.3 458.5,48.3 436.7,41.4 "/>
<linearGradient id="SVGID_2_" gradientUnits="userSpaceOnUse" x1="351.3465" y1="-295.7345" x2="351.3465" y2="-279.8223" gradientTransform="matrix(1 0 0 -1 -44.49 -105.1469)">
	<stop  offset="0" style="stop-color:#808080;stop-opacity:0.25"/>
	<stop  offset="0.54" style="stop-color:#808080;stop-opacity:0.12"/>
	<stop  offset="1" style="stop-color:#808080;stop-opacity:0.1"/>
</linearGradient>
<path class="st11" d="M331.7,180.4c-9,13.2-31.1,9.8-31.1,9.8c-1.1-0.8-8.3-2-13.7-2.9c-3.5-0.6-6.2-1-6.2-1l7.6-7.5l5.7,0.8
	l8.5,1.2C302.4,180.9,340.7,167.2,331.7,180.4z"/>
<g class="st12">
	
		<linearGradient id="SVGID_3_" gradientUnits="userSpaceOnUse" x1="351.3465" y1="-295.7345" x2="351.3465" y2="-279.8223" gradientTransform="matrix(1 0 0 -1 -44.49 -105.1469)">
		<stop  offset="0" style="stop-color:#808080;stop-opacity:0.25"/>
		<stop  offset="0.54" style="stop-color:#808080;stop-opacity:0.12"/>
		<stop  offset="1" style="stop-color:#808080;stop-opacity:0.1"/>
	</linearGradient>
	<path class="st13" d="M331.7,180.4c-9,13.2-31.1,9.8-31.1,9.8c-1.1-0.8-8.3-2-13.7-2.9c-3.5-0.6-6.2-1-6.2-1l7.6-7.5l5.7,0.8
		l8.5,1.2C302.4,180.9,340.7,167.2,331.7,180.4z"/>
</g>
<g class="st6">
	
		<linearGradient id="SVGID_4_" gradientUnits="userSpaceOnUse" x1="331.7931" y1="-292.463" x2="331.7931" y2="-284.0056" gradientTransform="matrix(1 0 0 -1 -44.49 -105.1469)">
		<stop  offset="0" style="stop-color:#808080;stop-opacity:0.25"/>
		<stop  offset="0.54" style="stop-color:#808080;stop-opacity:0.12"/>
		<stop  offset="1" style="stop-color:#808080;stop-opacity:0.1"/>
	</linearGradient>
	<path class="st14" d="M293.9,179.7l-7.1,7.6c-3.5-0.6-6.2-1-6.2-1l7.6-7.5L293.9,179.7z"/>
</g>
<linearGradient id="SVGID_5_" gradientUnits="userSpaceOnUse" x1="298.0003" y1="-294.1429" x2="298.0003" y2="-240.3528" gradientTransform="matrix(1 0 0 -1 -44.49 -105.1469)">
	<stop  offset="0" style="stop-color:#808080;stop-opacity:0.25"/>
	<stop  offset="0.54" style="stop-color:#808080;stop-opacity:0.12"/>
	<stop  offset="1" style="stop-color:#808080;stop-opacity:0.1"/>
</linearGradient>
<path class="st15" d="M215.1,152.4c0,0,33.1,36.7,68.4,36.6l9.6-10.5c0,0-32.4-16.4-36.7-25c-1.6-3.2-4.9-7.6-8.4-11.8
	c-10.7-13.1-39.7-4.6-33.4,9.9C214.9,151.8,215,152.1,215.1,152.4z"/>
<g class="st16">
	
		<linearGradient id="SVGID_6_" gradientUnits="userSpaceOnUse" x1="298.0003" y1="-294.1429" x2="298.0003" y2="-240.3528" gradientTransform="matrix(1 0 0 -1 -44.49 -105.1469)">
		<stop  offset="0" style="stop-color:#808080;stop-opacity:0.25"/>
		<stop  offset="0.54" style="stop-color:#808080;stop-opacity:0.12"/>
		<stop  offset="1" style="stop-color:#808080;stop-opacity:0.1"/>
	</linearGradient>
	<path class="st17" d="M215.1,152.4c0,0,33.1,36.7,68.4,36.6l9.6-10.5c0,0-32.4-16.4-36.7-25c-1.6-3.2-4.9-7.6-8.4-11.8
		c-10.7-13.1-39.7-4.6-33.4,9.9C214.9,151.8,215,152.1,215.1,152.4z"/>
</g>
<linearGradient id="SVGID_7_" gradientUnits="userSpaceOnUse" x1="264.0338" y1="-483.5152" x2="264.0338" y2="-461.3087" gradientTransform="matrix(1 0 0 -1 -44.49 -105.1469)">
	<stop  offset="0" style="stop-color:#808080;stop-opacity:0.25"/>
	<stop  offset="0.54" style="stop-color:#808080;stop-opacity:0.12"/>
	<stop  offset="1" style="stop-color:#808080;stop-opacity:0.1"/>
</linearGradient>
<path class="st18" d="M193.6,365.6l1.6,12.7c0,0,50.8-6,50.3-18C245,348.4,193.6,365.6,193.6,365.6z"/>
<g class="st6">
	
		<linearGradient id="SVGID_8_" gradientUnits="userSpaceOnUse" x1="264.0338" y1="-483.5152" x2="264.0338" y2="-461.3087" gradientTransform="matrix(1 0 0 -1 -44.49 -105.1469)">
		<stop  offset="0" style="stop-color:#808080;stop-opacity:0.25"/>
		<stop  offset="0.54" style="stop-color:#808080;stop-opacity:0.12"/>
		<stop  offset="1" style="stop-color:#808080;stop-opacity:0.1"/>
	</linearGradient>
	<path class="st19" d="M193.6,365.6l1.6,12.7c0,0,50.8-6,50.3-18C245,348.4,193.6,365.6,193.6,365.6z"/>
</g>
<linearGradient id="SVGID_9_" gradientUnits="userSpaceOnUse" x1="330.5832" y1="-485.8185" x2="330.5832" y2="-465.4743" gradientTransform="matrix(1 0 0 -1 -44.49 -105.1469)">
	<stop  offset="0" style="stop-color:#808080;stop-opacity:0.25"/>
	<stop  offset="0.54" style="stop-color:#808080;stop-opacity:0.12"/>
	<stop  offset="1" style="stop-color:#808080;stop-opacity:0.1"/>
</linearGradient>
<path class="st20" d="M253,369.6l-0.9,11.1c0,0,70.5-3.7,67.8-14.1c-2.7-10.4-39.9-4.6-39.9-4.6L253,369.6z"/>
<linearGradient id="SVGID_10_" gradientUnits="userSpaceOnUse" x1="265.8047" y1="-474.2192" x2="265.8047" y2="-323.639" gradientTransform="matrix(1 0 0 -1 -44.49 -105.1469)">
	<stop  offset="0" style="stop-color:#808080;stop-opacity:0.25"/>
	<stop  offset="0.54" style="stop-color:#808080;stop-opacity:0.12"/>
	<stop  offset="1" style="stop-color:#808080;stop-opacity:0.1"/>
</linearGradient>
<path class="st21" d="M253.9,261.5c0,0-4.2,8.2-9.5,17.6c-5.1,9-11.2,19.1-15.8,24.2C219.3,313.7,218,346,218,346
	c-1.8,5.2,7.1,15.4,7.1,15.4c-17.7,13.2-34.1,5.5-34.1,5.5c3.1-4-2.2-15.4-2.2-15.4s7.1-52.5,11.5-55c4.4-2.5,8-14.7,8-14.7l-4-41.7
	l-0.9-9.6l38.1-12l2.7,9.5l2.7,9.4L253.9,261.5z"/>
<g class="st6">
	
		<linearGradient id="SVGID_11_" gradientUnits="userSpaceOnUse" x1="265.8047" y1="-474.2192" x2="265.8047" y2="-323.639" gradientTransform="matrix(1 0 0 -1 -44.49 -105.1469)">
		<stop  offset="0" style="stop-color:#808080;stop-opacity:0.25"/>
		<stop  offset="0.54" style="stop-color:#808080;stop-opacity:0.12"/>
		<stop  offset="1" style="stop-color:#808080;stop-opacity:0.1"/>
	</linearGradient>
	<path class="st22" d="M253.9,261.5c0,0-4.2,8.2-9.5,17.6c-5.1,9-11.2,19.1-15.8,24.2C219.3,313.7,218,346,218,346
		c-1.8,5.2,7.1,15.4,7.1,15.4c-17.7,13.2-34.1,5.5-34.1,5.5c3.1-4-2.2-15.4-2.2-15.4s7.1-52.5,11.5-55c4.4-2.5,8-14.7,8-14.7
		l-4-41.7l-0.9-9.6l38.1-12l2.7,9.5l2.7,9.4L253.9,261.5z"/>
</g>
<linearGradient id="SVGID_12_" gradientUnits="userSpaceOnUse" x1="298.6162" y1="-476.9641" x2="298.6162" y2="-333.157" gradientTransform="matrix(1 0 0 -1 -44.49 -105.1469)">
	<stop  offset="0" style="stop-color:#808080;stop-opacity:0.25"/>
	<stop  offset="0.54" style="stop-color:#808080;stop-opacity:0.12"/>
	<stop  offset="1" style="stop-color:#808080;stop-opacity:0.1"/>
</linearGradient>
<path class="st23" d="M287.2,363.2c-8,9.8-35.9,8.6-35.9,8.6v-28.9c0,0-8-32.3-3.5-39.6s-1.8-20.9-1.8-20.9l-1.5-3.3l-18.1-39.6
	l-5.2-11.5H281c0,0,0,2,0,5.2c0.1,12.3,0.4,42.7,2.2,49.8c2.2,8.9-4,14.7-4,14.7s3.5,36.2,0.4,47.6S287.2,363.2,287.2,363.2z"/>
<linearGradient id="SVGID_13_" gradientUnits="userSpaceOnUse" x1="280.7733" y1="-230.8987" x2="280.7733" y2="-198.3435" gradientTransform="matrix(1 0 0 -1 -44.49 -105.1469)">
	<stop  offset="0" style="stop-color:#808080;stop-opacity:0.25"/>
	<stop  offset="0.54" style="stop-color:#808080;stop-opacity:0.12"/>
	<stop  offset="1" style="stop-color:#808080;stop-opacity:0.1"/>
</linearGradient>
<path class="st24" d="M237.9,93.2c0,0-9.3,17.8-27.9,24.3c-18.6,6.5,30.6,8.3,30.6,8.3s8-13.5,26.2-23L237.9,93.2z"/>
<g class="st6">
	
		<linearGradient id="SVGID_14_" gradientUnits="userSpaceOnUse" x1="286.6556" y1="-345.5007" x2="286.6556" y2="-323.6344" gradientTransform="matrix(1 0 0 -1 -44.49 -105.1469)">
		<stop  offset="0" style="stop-color:#808080;stop-opacity:0.25"/>
		<stop  offset="0.54" style="stop-color:#808080;stop-opacity:0.12"/>
		<stop  offset="1" style="stop-color:#808080;stop-opacity:0.1"/>
	</linearGradient>
	<path class="st25" d="M281,233.2c-7.4,1-20.6,2.8-34,4.3c-7.1,0.8-14.2,1.5-20.6,2c-9.9,0.8-18.2,1.2-22.1,0.5l-0.9-9.6l38.1-12
		l2.7,9.5H281C281,228,281,230,281,233.2z"/>
</g>
<linearGradient id="SVGID_15_" gradientUnits="userSpaceOnUse" x1="282.3497" y1="-344.5834" x2="282.3497" y2="-218.6172" gradientTransform="matrix(1 0 0 -1 -44.49 -105.1469)">
	<stop  offset="0" style="stop-color:#808080;stop-opacity:0.25"/>
	<stop  offset="0.54" style="stop-color:#808080;stop-opacity:0.12"/>
	<stop  offset="1" style="stop-color:#808080;stop-opacity:0.1"/>
</linearGradient>
<path class="st26" d="M287.2,231.4c0,0-74.9,10.8-84.2,7.4c-9.3-3.4-11.5-12-8.9-21.5s0-33.2-4.9-63.3c-2.5-15.2,3-25.3,8.9-31.7
	c5.3-5.6,14.2-8.9,23.7-8.8c8.1,0,16,1.9,22.4,5.5c1.9,1.1,3.8,1.9,5.3,2.2c1.2,0.2,3.1,1.2,5.1,2.4c9.2,5.7,15.1,13.6,16.2,22.3
	c0.8,5.7,1.6,12.9,2,20.2c0.4,6.2,0.3,12.5-0.3,18.7c-0.4,4.5-0.1,9.1,0.9,13.6C276.9,214.9,287.2,231.4,287.2,231.4z"/>
<g class="st6">
	
		<linearGradient id="SVGID_16_" gradientUnits="userSpaceOnUse" x1="297.269" y1="-303.4832" x2="297.269" y2="-245.0599" gradientTransform="matrix(1 0 0 -1 -44.49 -105.1469)">
		<stop  offset="0" style="stop-color:#808080;stop-opacity:0.25"/>
		<stop  offset="0.54" style="stop-color:#808080;stop-opacity:0.12"/>
		<stop  offset="1" style="stop-color:#808080;stop-opacity:0.1"/>
	</linearGradient>
	<path class="st27" d="M273.4,198.3c-27.2-11.8-41.3-44.6-41.3-44.6c0-0.3,0-0.6,0-0.8c-0.6-15.1,30.7-18,36-3.4
		c1.7,4.8,3.2,9.6,3.5,12.9c0.2,1.2,0.6,2.4,1.2,3.6c0.4,6.2,0.3,12.5-0.3,18.7C272.1,189.3,272.4,193.8,273.4,198.3z"/>
</g>
<g class="st6">
	
		<linearGradient id="SVGID_17_" gradientUnits="userSpaceOnUse" x1="293.8473" y1="-220.2518" x2="293.8473" y2="-200.187" gradientTransform="matrix(1 0 0 -1 -44.49 -105.1469)">
		<stop  offset="0" style="stop-color:#808080;stop-opacity:0.25"/>
		<stop  offset="0.54" style="stop-color:#808080;stop-opacity:0.12"/>
		<stop  offset="1" style="stop-color:#808080;stop-opacity:0.1"/>
	</linearGradient>
	<path class="st28" d="M233.3,103.8c4.4,5.2,7.9,10.4,16.9,11.3c4.4-4,9.5-7.5,15.2-10.5L236.6,95C236.6,95,238.3,98.3,233.3,103.8z
		"/>
</g>
<linearGradient id="SVGID_18_" gradientUnits="userSpaceOnUse" x1="255.6806" y1="-186.7785" x2="255.6806" y2="-146.2394" gradientTransform="matrix(1 0 0 -1 0 -73.3169)">
	<stop  offset="0" style="stop-color:#808080;stop-opacity:0.25"/>
	<stop  offset="0.54" style="stop-color:#808080;stop-opacity:0.12"/>
	<stop  offset="1" style="stop-color:#808080;stop-opacity:0.1"/>
</linearGradient>
<ellipse class="st29" cx="255.7" cy="93.2" rx="29.3" ry="20.3"/>
<g class="st6">
	
		<linearGradient id="SVGID_19_" gradientUnits="userSpaceOnUse" x1="299.4078" y1="-213.7086" x2="299.4078" y2="-168.1764" gradientTransform="matrix(1 0 0 -1 -44.49 -105.1469)">
		<stop  offset="0" style="stop-color:#808080;stop-opacity:0.25"/>
		<stop  offset="0.54" style="stop-color:#808080;stop-opacity:0.12"/>
		<stop  offset="1" style="stop-color:#808080;stop-opacity:0.1"/>
	</linearGradient>
	<path class="st30" d="M284.6,99.6c1.2,0,2.4-0.2,3.4-0.6c1.4-0.7,1.9-2,2.2-3.2c0.8-2.8,1.4-5.8,0-8.5c-0.9-1.8-2.6-3.3-3.7-5
		c-2.6-3.7-3.1-8.2-6.8-11.4c-2.3-2-10.6,0-14-1C258.2,67.5,255,63,247,63c-2.9-0.1-5.9,0.2-8.7,0.8c-3.6,0.8-6.8,2.3-9.7,3.9
		c-5.1,2.8-10.2,6.7-9.7,11.3c0.3,2.9,2.8,5.5,4.3,8.2c2.5,4.6,2,9.7,0.2,14.4c-0.8,2-1.6,4.4,0.4,5.9c1.3,1,3.3,1.2,5.1,1
		c1.8-0.3,3.5-0.8,5.1-1.5c2.9-1.1,5.8-2.2,8.1-3.8c1.5-1.1,2.8-2.3,4.3-3.4c2.9-2.1,6.1-4,9.7-5.5c2.8-1.2,5.8-0.5,8.7,0.3
		C271.3,96.4,277.4,99.6,284.6,99.6z"/>
</g>
<linearGradient id="SVGID_20_" gradientUnits="userSpaceOnUse" x1="298.9655" y1="-213.3991" x2="298.9655" y2="-167.8669" gradientTransform="matrix(1 0 0 -1 -44.49 -105.1469)">
	<stop  offset="0" style="stop-color:#808080;stop-opacity:0.25"/>
	<stop  offset="0.54" style="stop-color:#808080;stop-opacity:0.12"/>
	<stop  offset="1" style="stop-color:#808080;stop-opacity:0.1"/>
</linearGradient>
<path class="st31" d="M284.2,99.2c1.2,0,2.4-0.2,3.4-0.6c1.4-0.7,1.9-2,2.2-3.2c0.8-2.8,1.4-5.8,0-8.5c-0.9-1.8-2.6-3.3-3.7-5
	c-2.6-3.7-3.1-8.2-6.8-11.4c-2.3-2-10.1,0.3-13.6-0.7c-7.4-2.2-11-7-19.1-7c-2.9-0.1-5.9,0.2-8.7,0.8c-3.6,0.8-6.8,2.3-9.7,3.9
	c-5.1,2.8-10.2,6.7-9.7,11.3c0.3,2.9,2.8,5.5,4.3,8.2c2.5,4.6,2,9.7,0.2,14.4c-0.8,2-1.6,4.4,0.4,5.9c1.3,1,3.3,1.2,5.1,1
	c1.8-0.3,3.5-0.8,5.1-1.5c2.9-1.1,5.8-2.2,8.1-3.8c1.5-1.1,2.8-2.3,4.3-3.4c2.9-2.1,6.1-4,9.7-5.5c2.8-1.2,5.8-0.5,8.7,0.3
	C270.9,96.1,277,99.3,284.2,99.2z"/>
<g class="st16">
	
		<linearGradient id="SVGID_21_" gradientUnits="userSpaceOnUse" x1="291.5463" y1="-344.5795" x2="291.5463" y2="-223.0816" gradientTransform="matrix(1 0 0 -1 -44.49 -105.1469)">
		<stop  offset="0" style="stop-color:#808080;stop-opacity:0.25"/>
		<stop  offset="0.54" style="stop-color:#808080;stop-opacity:0.12"/>
		<stop  offset="1" style="stop-color:#808080;stop-opacity:0.1"/>
	</linearGradient>
	<path class="st32" d="M273.4,198.3c-1-4.5-1.3-9.1-0.9-13.6c0.6-6.2,0.7-12.4,0.3-18.7c-0.4-7.3-1.2-14.5-2-20.2
		c-1.2-8.6-7-16.6-16.2-22.3c-2.1-1.3-3.9-2.2-5.1-2.4c-1.5-0.3-3.4-1.2-5.3-2.2c-6.3-3.6,1.7,3.4,3.8,4.6
		c9.3,5.7,15.1,13.6,16.2,22.3c0.8,5.7,1.6,12.9,2,20.2c0.4,6.2,0.3,12.5-0.3,18.7c-0.4,4.5-0.1,9.1,0.9,13.6
		c3.4,16.6,13.7,33.1,13.7,33.1s-50.2,7.2-73.5,8c18.3,0.9,80.2-8,80.2-8S276.9,214.9,273.4,198.3z"/>
</g>
<linearGradient id="SVGID_22_" gradientUnits="userSpaceOnUse" x1="354.7588" y1="-312.5486" x2="354.7588" y2="-296.933" gradientTransform="matrix(1 0 0 -1 -44.49 -105.1469)">
	<stop  offset="0" style="stop-color:#808080;stop-opacity:0.25"/>
	<stop  offset="0.54" style="stop-color:#808080;stop-opacity:0.12"/>
	<stop  offset="1" style="stop-color:#808080;stop-opacity:0.1"/>
</linearGradient>
<path class="st33" d="M334.6,201.3c-13.7,11.1-33.7,3.7-33.7,3.7c-0.8-0.9-7.2-3.5-12.1-5.3c-3.1-1.2-5.6-2.1-5.6-2.1l10.2-5.8
	l5.2,1.8l7.7,2.8C306.2,196.4,348.4,190.3,334.6,201.3z"/>
<g class="st6">
	
		<linearGradient id="SVGID_23_" gradientUnits="userSpaceOnUse" x1="335.3409" y1="-304.8397" x2="335.3409" y2="-296.933" gradientTransform="matrix(1 0 0 -1 -44.49 -105.1469)">
		<stop  offset="0" style="stop-color:#808080;stop-opacity:0.25"/>
		<stop  offset="0.54" style="stop-color:#808080;stop-opacity:0.12"/>
		<stop  offset="1" style="stop-color:#808080;stop-opacity:0.1"/>
	</linearGradient>
	<path class="st34" d="M298.5,193.6l-9.7,6.1c-3.1-1.2-5.6-2.1-5.6-2.1l10.2-5.8L298.5,193.6z"/>
</g>
<linearGradient id="SVGID_24_" gradientUnits="userSpaceOnUse" x1="310.1205" y1="-305.8411" x2="310.1205" y2="-244.1423" gradientTransform="matrix(1 0 0 -1 -44.49 -105.1469)">
	<stop  offset="0" style="stop-color:#808080;stop-opacity:0.25"/>
	<stop  offset="0.54" style="stop-color:#808080;stop-opacity:0.12"/>
	<stop  offset="1" style="stop-color:#808080;stop-opacity:0.1"/>
</linearGradient>
<path class="st35" d="M233.1,152.8c0,0,17.7,41.5,51.9,47.9l13.3-8.3c0,0-24.9-21.8-25.7-30.9c-0.3-3.3-1.8-8.2-3.5-12.9
	c-5.3-14.6-36.6-11.7-36,3.4C233,152.2,233,152.5,233.1,152.8z"/>
<linearGradient id="SVGID_25_" gradientUnits="userSpaceOnUse" x1="268.4679" y1="-301.3893" x2="268.4679" y2="-294.9352" gradientTransform="matrix(1 0 0 -1 -44.49 -105.1469)">
	<stop  offset="0" style="stop-color:#808080;stop-opacity:0.25"/>
	<stop  offset="0.54" style="stop-color:#808080;stop-opacity:0.12"/>
	<stop  offset="1" style="stop-color:#808080;stop-opacity:0.1"/>
</linearGradient>
<path class="st36" d="M198.7,193.2c0,0,11.5-6.5,22.2-1.5c10.6,4.9,26.2,4.3,28.4,4.6"/>
<path class="st37" d="M328.3,179.7c-8.6,12.9-29.6,9.6-29.6,9.6c-1.1-0.7-7.9-2-13-2.8c-3.3-0.5-5.9-0.9-5.9-0.9l7.2-7.3l5.4,0.8
	l8.1,1.2C300.5,180.3,336.9,166.9,328.3,179.7z"/>
<path class="st38" d="M328.3,179.7c-8.6,12.9-29.6,9.6-29.6,9.6c-1.1-0.7-7.9-2-13-2.8c-3.3-0.5-5.9-0.9-5.9-0.9l7.2-7.3l5.4,0.8
	l8.1,1.2C300.5,180.3,336.9,166.9,328.3,179.7z"/>
<path class="st39" d="M292.4,179l-6.7,7.4c-3.3-0.5-5.9-0.9-5.9-0.9l7.2-7.3L292.4,179z"/>
<path class="st8" d="M217.4,152.4c0,0,31.5,35.8,65.1,35.7l9.2-10.2c0,0-30.8-16-34.9-24.4c-1.5-3.1-4.6-7.4-8-11.5
	c-10.3-12.8-37.8-4.4-31.8,9.6C217.2,151.9,217.3,152.1,217.4,152.4z"/>
<path class="st40" d="M217.4,152.4c0,0,31.5,35.8,65.1,35.7l9.2-10.2c0,0-30.8-16-34.9-24.4c-1.5-3.1-4.6-7.4-8-11.5
	c-10.3-12.8-37.8-4.4-31.8,9.6C217.2,151.9,217.3,152.1,217.4,152.4z"/>
<path class="st2" d="M197,360.4l1.5,12.4c0,0,48.3-5.8,47.9-17.5C245.9,343.7,197,360.4,197,360.4z"/>
<path class="st39" d="M197,360.4l1.5,12.4c0,0,48.3-5.8,47.9-17.5C245.9,343.7,197,360.4,197,360.4z"/>
<path class="st2" d="M253.5,364.3l-0.8,10.8c0,0,67.1-3.6,64.6-13.8c-2.5-10.2-38-4.5-38-4.5L253.5,364.3z"/>
<path class="st41" d="M254.3,258.9c0,0-4,8-9,17.2c-4.8,8.8-10.7,18.6-15,23.6c-8.8,10.2-10.1,41.7-10.1,41.7
	c-1.7,5.1,6.7,15,6.7,15c-16.9,12.9-32.5,5.4-32.5,5.4c3-3.9-2.1-15-2.1-15s6.7-51.2,11-53.6c4.2-2.4,7.6-14.4,7.6-14.4l-3.8-40.7
	l-0.9-9.3l36.3-11.7l2.6,9.3l2.6,9.2L254.3,258.9z"/>
<path class="st39" d="M254.3,258.9c0,0-4,8-9,17.2c-4.8,8.8-10.7,18.6-15,23.6c-8.8,10.2-10.1,41.7-10.1,41.7
	c-1.7,5.1,6.7,15,6.7,15c-16.9,12.9-32.5,5.4-32.5,5.4c3-3.9-2.1-15-2.1-15s6.7-51.2,11-53.6c4.2-2.4,7.6-14.4,7.6-14.4l-3.8-40.7
	l-0.9-9.3l36.3-11.7l2.6,9.3l2.6,9.2L254.3,258.9z"/>
<path class="st41" d="M286,358c-7.6,9.6-34.2,8.4-34.2,8.4v-28.2c0,0-7.6-31.5-3.4-38.7s-1.7-20.4-1.7-20.4l-1.4-3.2l-17.2-38.6
	l-5-11.2h57c0,0,0,1.9,0,5c0.1,12,0.4,41.7,2.1,48.6c2.1,8.7-3.8,14.4-3.8,14.4s3.4,35.4,0.4,46.4C275.8,351.7,286,358,286,358z"/>
<path class="st37" d="M239.1,94.6c0,0-8.9,17.4-26.6,23.7c-17.7,6.3,29.1,8.1,29.1,8.1s7.6-13.2,24.9-22.5L239.1,94.6z"/>
<path class="st39" d="M280.1,231.2c-7.1,1-19.5,2.7-32.4,4.2c-6.7,0.8-13.5,1.5-19.6,2c-9.4,0.8-17.3,1.1-21,0.5l-0.9-9.3l36.3-11.7
	l2.6,9.3h34.9C280.1,226.2,280.1,228.1,280.1,231.2z"/>
<path class="st8" d="M286,229.5c0,0-71.3,10.5-80.2,7.2c-8.9-3.3-11-11.7-8.4-21c2.5-9.3,0-32.4-4.6-61.7
	c-2.3-14.8,2.8-24.7,8.5-30.9c5-5.4,13.5-8.7,22.6-8.6c7.7,0,15.3,1.9,21.3,5.3c1.8,1,3.6,1.9,5.1,2.2c1.2,0.2,2.9,1.1,4.9,2.3
	c8.9,5.6,14.4,13.4,15.5,21.7c0.7,5.6,1.5,12.6,1.9,19.7c0.4,6.1,0.3,12.1-0.3,18.2c-0.4,4.4-0.1,8.9,0.9,13.3
	C276.2,213.4,286,229.5,286,229.5z"/>
<path class="st39" d="M272.9,197.2c-25.9-11.5-39.3-43.6-39.3-43.6c0-0.3,0-0.6,0-0.8c-0.6-14.7,29.2-17.5,34.2-3.3
	c1.6,4.7,3,9.4,3.3,12.6c0.2,1.2,0.5,2.4,1.1,3.5c0.4,6.1,0.3,12.1-0.3,18.2C271.7,188.4,272,192.8,272.9,197.2z"/>
<path class="st39" d="M234.7,105c4.2,5.1,7.5,10.2,16.1,11c4.2-3.9,9.1-7.3,14.5-10.3l-27.4-9.3C237.9,96.4,239.5,99.6,234.7,105z"
	/>
<ellipse class="st37" cx="256" cy="94.6" rx="27.9" ry="19.8"/>
<path class="st39" d="M283.6,100.8c1.2,0,2.3-0.2,3.3-0.6c1.3-0.7,1.8-2,2.1-3.1c0.7-2.7,1.3-5.6,0-8.3c-0.8-1.8-2.4-3.3-3.6-4.9
	c-2.5-3.6-2.9-8-6.5-11.1c-2.2-2-10.1,0-13.3-1c-7.1-2.1-10.1-6.5-17.7-6.5c-2.8-0.1-5.6,0.2-8.3,0.8c-3.4,0.8-6.4,2.2-9.3,3.8
	c-4.9,2.8-9.7,6.6-9.2,11c0.3,2.8,2.7,5.3,4.1,8c2.3,4.5,1.9,9.4,0.2,14c-0.7,2-1.5,4.3,0.4,5.8c1.2,0.9,3.2,1.2,4.9,1
	c1.7-0.3,3.4-0.8,4.9-1.4c2.7-1.1,5.5-2.1,7.7-3.7c1.5-1,2.7-2.2,4.1-3.3c2.7-2.1,5.8-3.9,9.2-5.3c2.7-1.2,5.5-0.5,8.3,0.3
	C270.9,97.8,276.7,100.9,283.6,100.8z"/>
<path class="st42" d="M283.1,100.5c1.2,0,2.3-0.2,3.3-0.6c1.3-0.7,1.8-2,2.1-3.1c0.7-2.7,1.3-5.6,0-8.3c-0.8-1.8-2.4-3.3-3.6-4.9
	c-2.5-3.6-2.9-8-6.5-11.1c-2.2-2-9.6,0.3-12.9-0.7c-7.1-2.1-10.5-6.8-18.2-6.8c-2.8-0.1-5.6,0.2-8.3,0.8c-3.4,0.8-6.4,2.2-9.3,3.8
	c-4.9,2.8-9.7,6.6-9.2,11c0.3,2.8,2.7,5.3,4.1,8c2.3,4.5,1.9,9.4,0.2,14c-0.7,2-1.5,4.3,0.4,5.8c1.2,0.9,3.2,1.2,4.9,1
	c1.7-0.3,3.4-0.8,4.9-1.4c2.7-1.1,5.5-2.1,7.7-3.7c1.5-1,2.7-2.2,4.1-3.3c2.8-2.1,5.9-3.8,9.3-5.3c2.7-1.2,5.5-0.5,8.3,0.3
	C270.5,97.5,276.3,100.6,283.1,100.5z"/>
<path class="st40" d="M272.9,197.2c-1-4.4-1.2-8.8-0.8-13.3c0.6-6.1,0.6-12.1,0.3-18.2c-0.4-7.1-1.1-14.1-1.9-19.7
	c-1.1-8.4-6.6-16.2-15.5-21.7c-2-1.2-3.7-2.1-4.9-2.3c-1.5-0.3-3.3-1.1-5.1-2.2c-6-3.5,1.6,3.3,3.6,4.5c8.9,5.6,14.4,13.4,15.5,21.7
	c0.7,5.6,1.5,12.6,1.9,19.7c0.4,6.1,0.3,12.1-0.3,18.2c-0.4,4.4-0.1,8.9,0.9,13.3c3.3,16.2,13.1,32.3,13.1,32.3s-47.7,7-69.9,7.8
	c17.4,0.9,76.3-7.8,76.3-7.8S276.2,213.4,272.9,197.2z"/>
<path class="st37" d="M331.1,200.1c-13.1,10.8-32,3.6-32,3.6c-0.8-0.9-6.9-3.4-11.5-5.2c-3-1.2-5.4-2-5.4-2l9.7-5.7l4.9,1.8l7.3,2.7
	C304.1,195.3,344.2,189.3,331.1,200.1z"/>
<path class="st39" d="M296.8,192.6l-9.2,5.9c-3-1.2-5.4-2-5.4-2l9.7-5.7L296.8,192.6z"/>
<path class="st8" d="M234.5,152.8c0,0,16.9,40.5,49.4,46.7l12.7-8.1c0,0-23.7-21.3-24.5-30.1c-0.3-3.3-1.7-8-3.3-12.6
	c-5.1-14.3-34.8-11.4-34.2,3.3C234.5,152.2,234.5,152.5,234.5,152.8z"/>
<path class="st40" d="M201.8,192.2c0,0,11-6.3,21.1-1.5c10.1,4.8,24.9,4.2,27,4.5"/>
</svg>
