<svg id="Calque_1" data-name="Calque 1" xmlns="http://www.w3.org/2000/svg" viewBox="0 0 1920.01 1073.01"><defs><style>.cls-1{fill:#fff;stroke:#000;stroke-miterlimit:10;}.cls-2{fill:#8fd1d9;}</style></defs><path class="cls-1" d="M0,175.9" transform="translate(0 -7.32)"/><path class="cls-2" d="M1920,900.71c-42.5-154.38-215.5,7.62-215.5,7.62s-347.25,328.21-495.41,54.4c-123.59-228.4-422.79,0-422.79,0s-336.8,264.6-408.86,0S0,962.73,0,962.73V128.9s305.39-264.6,377.44,0,408.86,0,408.86,0,299.2-228.4,422.79,0c148.16,273.81,495.41-54.4,495.41-54.4C1699,80,1842-74,1920,66.87" transform="translate(0 -7.32)"/><path class="cls-1" d="M0,862.73" transform="translate(0 -7.32)"/></svg>