<?xml version="1.0" encoding="utf-8"?>
<!-- Generator: Adobe Illustrator 25.1.0, SVG Export Plug-In . SVG Version: 6.00 Build 0)  -->
<svg version="1.1" id="b1d80de4-06cb-4b2d-9c4c-b14d42818646"
	 xmlns="http://www.w3.org/2000/svg" xmlns:xlink="http://www.w3.org/1999/xlink" x="0px" y="0px" viewBox="0 0 1009.5 750.4"
	 style="enable-background:new 0 0 1009.5 750.4;" xml:space="preserve">
<style type="text/css">
	.st0{opacity:0.1;fill:#340D5D;enable-background:new    ;}
	.st1{opacity:0.8;}
	.st2{fill:#340D5D;}
	.st3{fill:#444053;}
	.st4{fill:none;stroke:#444053;stroke-miterlimit:10;}
	.st5{fill:none;stroke:#444053;stroke-width:0.75;stroke-miterlimit:10;}
	.st6{fill:url(#SVGID_1_);}
	.st7{fill:#FBBEBE;}
	.st8{opacity:0.1;enable-background:new    ;}
	.st9{fill:#3F3D56;}
	.st10{fill:#0C2CE8;}
	.st11{fill:#E2102A;}
	.st12{fill:#08BBF9;}
</style>
<path class="st0" d="M584.2,102.7c-64.7-1.7-126.4-17.2-185.2-34.2c-58.9-17-117.2-35.8-180.3-44.8c-40.6-5.8-87.1-6.6-119.8,9.6
	c-31.5,15.6-41.7,42.4-47.2,67.4c-4.1,18.8-6.5,38.5,4.7,56.1c7.8,12.2,21.7,22.5,31.4,34.1c33.5,40.7,9.8,90.8-26.5,130.5
	c-17,18.6-36.8,36.4-49.9,56.2s-19.2,42.5-7.7,62.8c11.4,20,38.5,35.1,67.9,45.7c59.7,21.5,130,27.7,198.6,31.2
	c151.8,7.7,304.5,4.4,456.7,1c56.3-1.2,112.9-2.5,168.3-9c30.8-3.6,62.6-9.3,84.9-23.1c28.4-17.5,35.4-47.1,16.4-69
	c-31.9-36.8-120-45.9-142.3-85.4c-12.3-21.7,0.3-45.9,18.2-66.1c38.2-43.2,102.3-81.1,105.7-130.5c2.3-33.9-28.5-67.9-76.1-84
	c-49.9-16.8-119.2-14.7-156,13.1C708.1,93.1,641.4,104.2,584.2,102.7z"/>
<g class="st1">
	<path class="st2" d="M938.8,178.8c0,0-11.3-4.6-47.2,11.9S851.3,205,842,202.5s-14.5-3.1-24.4-16.9c0,0-7-38.1-13.8-44
		S768,145,768,145s-34.6,8-41.3-38.3c0,0,4.7-34.9-1.7-45.6c0,0,12.9,5.6,34.1-3.4s38.2,9.7,38.2,9.7s5.4,13.9,4.8,22.1
		s2.8,11.4,13,7.4c0,0,5-7.1-2.1-18.8S801.1,57.7,803,48.6s7.6-21.7,25.8-28s42.9-7.5,54.7-12.4S898.3,0,898.3,0s-7.3,7.3,9.9,38.3
		s6.2,44.4,6.2,44.4s-9.1,21.8-49.5,20c0,0-38.9,1.4-17.7,17.9c0,0,13.6-2.8,33.9-9.2s34.9,20.2,38.6,38.7S938.8,178.8,938.8,178.8z
		"/>
	<path class="st3" d="M886.5,23.5l0.2-0.1c1.6,5.9-15.8,29.7-30.7,48.5l-0.2-0.1C876.9,45.2,887.8,28,886.5,23.5z"/>
	<path class="st3" d="M856.2,71.4l0.1,0.2c-11.9,15.1-26.8,33.1-38.7,46.4c-1.1,1.3-2.3,2.6-3.3,4l-0.3-0.3c1.1-1.4,2.2-2.7,3.4-4
		C829.2,104.5,844.4,86.5,856.2,71.4z"/>
	<path class="st3" d="M814.2,121.4l0.2,0.4c-21.7,27.1-23.2,69.3-23.2,69.6l-4.6-5.2C786.7,185.8,792.3,148.7,814.2,121.4z"/>
	<path class="st4" d="M913.6,164.1c0,0-25.6-13.3-45.6-8.5s-64.9-16.9-64.9-16.9s-19.1-7.8-22.9-16.6c0,0-13.1-13.9-13.8-21
		s-13.5-25.2-21.8-25.8"/>
	<path class="st4" d="M909.9,176.9c0,0-12.9-8.7-11.4-18.8"/>
	<path class="st4" d="M890.1,188.1c0,0-18.5-6.7-20.3-33"/>
	<path class="st4" d="M860.3,194.9c0,0-17.6-14.6-11.8-40.2"/>
	<path class="st4" d="M824.5,187.8c0,0-11.7-24.6-1.3-40.6"/>
	<path class="st4" d="M913.9,147.8c0,0-13.3,4.2-10.5,11.3"/>
	<path class="st4" d="M897.8,123.6c0,0-17.9,5.7-18.3,30.9"/>
	<path class="st4" d="M872.9,117.8c0,0-16.3,20.1-15.1,38.3"/>
	<path class="st4" d="M844.4,125.6c0,0-16.2,15.4-14.1,24"/>
	<path class="st4" d="M834.7,120.2c0,0-15.1,2.7-17.3-2.3"/>
	<path class="st4" d="M815,101.9c0,0,7.7,10.1,9.6,7.9"/>
	<path class="st4" d="M890.8,95.5c0,0-38.2,2.8-46.8-8.7"/>
	<path class="st4" d="M807,50.9c0,0,17.9,38.4,30.9,43.3"/>
	<path class="st4" d="M825.8,32.6c0,0,11,35.3,24.6,46.4"/>
	<path class="st5" d="M906.9,66.3c0,0-29,12.4-46.4-0.1"/>
	<path class="st5" d="M851.6,25c0,0,6.6,26,15.6,32.3"/>
	<path class="st5" d="M902.5,37.2c0,0-16.3,6.2-22.4,1.4"/>
	<path class="st4" d="M801,110.4c0,0,0,22.6-6.2,24.3"/>
	<path class="st4" d="M750.6,139.8c0,0,24.5,2.1,35.8-10.5"/>
	<path class="st4" d="M794.7,83.6c0,0-5.9,23-22.3,29.2"/>
	<path class="st4" d="M735.9,115.6c0,0,17.3,6,32.3-9.3"/>
	<path class="st4" d="M775.4,63.9c0,0-1.6,19.5-12.3,28.6"/>
	<path class="st4" d="M736.6,85.8c0,0,14.4,0.1,17.8-4.6"/>
</g>
<ellipse class="st0" cx="262.9" cy="734.9" rx="218" ry="15.5"/>
<linearGradient id="SVGID_1_" gradientUnits="userSpaceOnUse" x1="361.1273" y1="-67.6654" x2="361.1273" y2="532.9264" gradientTransform="matrix(1 0 0 -1 -95.23 677.2)">
	<stop  offset="0" style="stop-color:#808080;stop-opacity:0.25"/>
	<stop  offset="0.54" style="stop-color:#808080;stop-opacity:0.12"/>
	<stop  offset="1" style="stop-color:#808080;stop-opacity:0.1"/>
</linearGradient>
<path class="st6" d="M389.2,650.5c3-5.4,6.6-10.5,9.5-15.9c2.6-5,4.7-10.3,7.1-15.4c4.1-8.8,9.1-17.1,13.7-25.7
	c3-5.6,5.9-11.7,5.3-18.1c-0.5-6-4.1-11.2-5.4-17c-5.5-23.8-18.9-45.7-27-68.7c-2.1-5.8-4.1-11.7-6.7-17.4c-5-10.8-12-20.6-19-30.3
	c-2.5-3.7-5.3-7.2-8.4-10.4c-2.5-2.5-5.3-4.7-7.6-7.4c-4.7-5.6-6.9-13.7-12.8-18c-0.1,0.3-0.2,0.5-0.3,0.8
	c-4.2-10.7-18.3-17.8-26.5-26.7c-4.8-5.4-9.2-11.2-13.1-17.3l-17.8-25.8c-3.1-4.4-6.2-9-7.4-14.3c-1.5-6.4-0.1-13.2-1.6-19.6
	c-1-3.8-2.8-7.4-5.5-10.4c0.2,0,0.4-0.1,0.5-0.2c3.4-0.9,7-1.1,10.4-1.9c7.4-1.8,13.7-6.5,21.1-8.3c3.7-1,7.7-1.2,11.1-3
	c3.4-2,5.1-6,4.3-9.8c-2.4-12.5,4.3-25.3,3.1-38c-0.3-3.5-1.2-7-1.8-10.4c-1.4-8.1-1.1-16.4-0.6-24.6c2.3-3.7,5-7.1,8.1-10.1
	c4.5-4.3,9.9-8,13-13.4c2.7-4.8,3.4-10.6,2.7-16.1c-0.5-4-1.9-8.2-5-10.6s-7.7-2.6-11.5-1.3c-0.5,0.2-1,0.4-1.6,0.6
	c-3.2-1.6-7-1.8-10.3-0.6c-3.8,1.3-7.1,3.8-10.1,6.4c-1.8,1.4-3.4,3.1-4.7,5c-1.9,3-2.5,6.7-3.2,10.2c-1.6,6.8-3.8,13.4-6.8,19.8
	c-0.5,1.1-2,3.1-3.2,5l-2.1-0.4c-0.9,8.9-8.4,15.5-12.9,23.1c-2.2,3.7-3.8,7.8-5.8,11.7c-2.3,4.2-4.8,8.3-7.6,12.2
	c-2.7,4-5.4,8-8.1,11.9c-3.4,5.2-7.1,10.1-11,14.9c-3.7-0.3-7.3-0.6-11-0.6c-6.1-0.1-12.3,0.5-18.3,1.6c-0.4-2.1-0.6-4.3-0.6-6.4
	c0-0.1,0-0.3,0-0.4c0-0.5,0.1-1.1,0.1-1.8c17-11.4,21.5-34.4,10.2-51.3c-3.1-4.6-7.2-8.5-11.9-11.3c0.2-1.1,0.3-2.3,0.4-3.4
	c0-0.7,0-1.4,0-2c0-0.3,0-0.7-0.1-1c-0.1-0.7-0.2-1.3-0.3-2c-0.1-0.3-0.2-0.6-0.3-1c-0.2-0.6-0.5-1.2-0.8-1.8c0,0,0-0.1-0.1-0.1
	c-0.1-0.2-0.3-0.4-0.4-0.6s-0.1-0.2-0.2-0.2c-0.1-0.1-0.2-0.3-0.3-0.4l-0.3-0.3c-0.1-0.1-0.2-0.2-0.3-0.4l-0.3-0.3l-0.4-0.3
	l-0.3-0.2l-0.4-0.3l-0.4-0.2l-0.4-0.2c-0.1-0.1-0.3-0.1-0.4-0.2l-0.4-0.2l-0.4-0.2l-0.4-0.2l-0.4-0.2l-0.4-0.2l-0.5-0.2l-0.3-0.1
	l-0.5-0.2l-0.3-0.1l-0.6-0.2l-0.3-0.1l-0.6-0.2l-0.2-0.1l-0.6-0.2l-0.2-0.1l-0.7-0.2h-0.1l-1.1-0.2c-4.4-0.9-8.8-1.7-13.2-2.3
	c-3.6-0.5-7.4-1-10.9-0.2c-4.9,1.1-9.1,4.4-13.7,6.5c-5.5,2.5-11.5,3.1-17.3,4.5c-5.8,1.4-11.8,3.7-15.5,8.4
	c-2.8,3.6-3.9,8.3-4.7,12.8c-6.9,37.6,0.5,76.2,1.9,114.5c0.6,14.9-0.1,30.8-8.6,43l24.6-0.6c1.2,0,2.4-0.1,3.6-0.1s2.4-0.2,3.6-0.3
	c3.1-0.3,6.1-1.2,8.9-2.7c1.3-0.7,2.4-1.6,3.5-2.7c3.3-3.4,5.1-8.3,6.8-12.8c0.6-1.5,1.1-3.1,1.6-4.7c0.2-0.7,0.4-1.3,0.6-2l0.1-0.3
	l0.3,0.1c1,1.9,2.1,3.7,3.3,5.5c4.3,6.3,9.7,11.7,15.1,17.1c10.7,10.7,21.7,21.5,35.1,28.3c4.5,2.3,9.5,4.2,12.9,8
	c1.7,1.8,3.2,4.2,5.6,4.8c1.5,0.4,3.1,0,4.6,0.6c2.1,0.9,2.9,3.4,3.8,5.5c1,2.1,3.2,4.2,5.2,3.3c-0.8,3.9,0.7,8,3.9,10.4
	c1,0.6,1.9,1.3,2.5,2.3c0.3,0.9,0.5,1.8,0.5,2.7c0.4,2.6,1.8,4.9,3.8,6.5c-2,3.2-0.4,7.9-0.3,11.9c0,3.4-1.1,6.6-1.9,9.9
	c-2.2,9.7-1,19.8,0.8,29.5c1,5.4,2.3,10.9,5.8,15.1c1.1,1.3,2.5,2.5,3.7,3.8c2.3,2.6,4.2,5.5,5.6,8.6c3,6.2,5.1,12.8,6.1,19.6
	c0.5,3.4,1.5,6.8,2.9,9.9c2.2,4.8,0.2,10.7,2.1,15.5c0.9,2.2,2.5,4.1,3.1,6.3c0.8,3.3-1,6.7-1.5,10c-1.1,7.9,4.6,15.3,5.1,23.3
	c0.1,0.5,0,1-0.3,1.3c-0.4,0.4-1.1,0.4-1.6,0.7c-1,0.5-1.3,1.8-1.6,3s-1.2,2.4-2.3,2c-16.4,8.8-33.4,16.9-49.9,25.7l-7.5,4
	l-40.1,21.4c-1,0.5-1.6,1.5-1.6,2.6c0,0.5,0.1,1,0.1,1.5c-2.8,0.7-5.5,1.5-7.4,1.9c-0.8,0.2-1.6,0.3-2.4,0.5c0.2-0.3,0.3-0.6,0.4-1
	c0-1-0.8-1.9-1.8-2c-1-0.1-2,0-2.9,0.4c-2.3,0.6-4.6,1.1-7,1.3c-2.8,0.3-5.7,0.3-8.4,1s-5.4,2.4-6.5,5c-0.6,1.5-0.8,3.1-0.7,4.7
	c-0.1,6.2,0.7,12.3,2.2,18.3c0,0.5,0.3,0.9,0.7,1.2c0.4,0.1,0.8,0,1.1,0.2c0.3,0.2,0.5,0.5,0.6,0.8c1.7,3.8,2.1,8.1,2.5,12.2
	c0.7,6.2,1.5,12.3,2.5,18.5c0.6,3.6,1.3,7.3,3.7,10.1c2.6,3,6.6,4.3,10.5,4.9c8.3,1.1,16.6-0.6,24.7-2.3c1.5-0.3,3.1-0.7,4.2-1.9
	c0.7-0.9,1.1-2.1,1-3.3c-0.2-4.1-3.9-7-7.3-9.3l-4.6-3.2c-0.8-0.4-1.2-1.4-1-2.3l0.3-6.1h-0.9c1-4.3,2.6-8.4,5.8-11.3
	c2.2-2,5-3.4,7.3-5.2c2.9,2.2,6.4,3.5,10.1,3.7c6-8.1,14.5-13.6,22.9-19c6.9-4.3,14-8.3,21.3-11.9c5.9-2.9,11.9-5.7,18-8.2
	c8.6-3.6,17.4-6.8,26.1-10c5.9-2.1,11.8-4.2,17.1-7.3c14-8.1,23.9-24.2,22-40.4c-2.4-20.4,2.7-41.7,2.4-62.2c-0.1-6-0.3-12-2.1-17.8
	c0.4,0.3,0.8,0.6,1.2,1c3.6,3.4,4.5,8.8,8,12.7c2.7,3,6.8,5,8.5,8.7c1.3,2.8,1.1,6.7,3.7,8.3c0.7,0.5,1.6,0.7,2.4,1.1
	c0.9,0.6,1.6,1.4,2.2,2.4c2.8,4,5.6,8.2,5.9,13c0.1,1.9,0,4.1,1.4,5.4c0.4,0.4,0.9,0.6,1.1,1.1c0.4,1-0.7,2.1-0.9,3.2
	c-0.3,1.5,1.2,2.7,2.2,4c1.6,2.2,1.6,5.2,0,7.4c-8.2,10.7-9.7,25-16.9,36.4c-2.5,3.9-5.2,7.7-7.6,11.6
	c-7.4,12.2-11.1,26.3-14.7,40.1c1.5,2.7,3.6,5,6.1,6.9c-1.4,4.7-3.7,9-6.9,12.7c-0.8,0.9-1.6,1.8-2.3,2.8c-0.6-0.7-1.4-1.3-2.2-1.7
	c-1.3,5.7-2,11.6-2,17.5c0,3.9,0.5,8.3,3.7,10.5c1.3,0.8,2.6,1.4,4.1,1.7l6.9,2c1.2,0.5,2.5,0.6,3.8,0.4c0.8-0.2,1.5-0.7,2.4-0.9
	c0.9-0.1,1.8,0,2.7,0.3l5.9,1.7c2,0.5,4,1.2,5.9,2.1c1.7,0.8,3.3,1.9,4.9,2.8c2.8,1.4,5.6,2.6,8.6,3.5l10.2,3.5
	c2.8,1.1,5.8,1.9,8.9,2.3c2.1,0.2,4.2,0,6.3,0.4c1.6,0.3,3.1,0.8,4.7,1c2.6,0.1,5.2-0.7,7.4-2.2c0.8-0.5,1.6-1.1,2.1-1.9
	c1.5-2.3,0.2-5.4-1.3-7.8c-2.7-4.4-6.1-8.5-10.6-11c-1.8-1-3.8-1.7-5.6-2.7c-5.3-2.6-9.3-6.9-14.4-9.9c-1.3-0.9-3.1-0.8-4.3,0.3
	c-4.2-2.7-8.7-5.4-11-9.8c-1-2.1-1.7-4.4-2-6.8c2.4,0.6,4.7,1,7.1,1.4C377.3,679.5,381.5,664.1,389.2,650.5z M293.1,224
	c-0.2,1.1-0.4,2.3-0.7,3.4c-2,9.4-4.9,19.9-11.4,26.9c-2.2,2-4.7,3.7-7.4,4.9l-0.7,0.4C277.6,246.9,285.1,235.3,293.1,224z"/>
<path class="st7" d="M302.8,168.3c0.7-3.5,1.3-7.1,3.2-10.2c1.3-1.9,2.9-3.6,4.7-5c3.1-2.6,6.3-5.1,10.1-6.3s8.3-1.1,11.5,1.3
	s4.5,6.6,5,10.6c0.7,5.5,0,11.2-2.7,16c-3.1,5.4-8.5,9-13,13.3c-3.3,3.1-6.1,6.7-8.5,10.6c-1.1,2-2.4,3.9-3.9,5.6
	c-1.5,1.7-3.8,2.7-6.1,2.5c-1.9-0.3-3.5-1.6-5-2.9c-1.9-1.6-6.8-4.5-7-7.1c-0.1-2.1,3.8-6.8,4.7-8.8
	C298.9,181.7,301.2,175.1,302.8,168.3z"/>
<path class="st8" d="M302.8,168.3c0.7-3.5,1.3-7.1,3.2-10.2c1.3-1.9,2.9-3.6,4.7-5c3.1-2.6,6.3-5.1,10.1-6.3s8.3-1.1,11.5,1.3
	s4.5,6.6,5,10.6c0.7,5.5,0,11.2-2.7,16c-3.1,5.4-8.5,9-13,13.3c-3.3,3.1-6.1,6.7-8.5,10.6c-1.1,2-2.4,3.9-3.9,5.6
	c-1.5,1.7-3.8,2.7-6.1,2.5c-1.9-0.3-3.5-1.6-5-2.9c-1.9-1.6-6.8-4.5-7-7.1c-0.1-2.1,3.8-6.8,4.7-8.8
	C298.9,181.7,301.2,175.1,302.8,168.3z"/>
<path class="st2" d="M197.8,268.3c8-2.1,16.3-3.1,24.6-3c13.8,0.2,28.1,3.5,41.2-0.7c3.4-1.2,6.7-2.6,9.9-4.3
	c2.6-1.3,5.4-2.7,7.4-4.8c6.5-6.9,9.4-17.4,11.4-26.7s2.6-18.9,3.1-28.4c3.4,1.6,7,3.2,10.8,2.8s7.5-3.2,7.5-7
	c-0.6,8.8-1,17.8,0.5,26.5c0.6,3.5,1.5,6.9,1.8,10.4c1.1,12.6-5.5,25.3-3.1,37.7c0.8,3.8-0.9,7.8-4.3,9.8c-3.4,1.8-7.4,2.1-11.1,3
	c-7.3,1.9-13.7,6.5-21.1,8.3c-3.4,0.8-7,1-10.4,1.9c-4.9,1.3-9.3,4.1-14.2,4.9c-3.7,0.7-7.5,0.2-11.3,0.5c-3.3,0.3-6.5,1.1-9.7,1.2
	c-8,0.2-15.6-4.3-20.9-10.3S201.1,275.5,197.8,268.3z"/>
<path class="st8" d="M197.8,268.3c8-2.1,16.3-3.1,24.6-3c13.8,0.2,28.1,3.5,41.2-0.7c3.4-1.2,6.7-2.6,9.9-4.3
	c2.6-1.3,5.4-2.7,7.4-4.8c6.5-6.9,9.4-17.4,11.4-26.7s2.6-18.9,3.1-28.4c3.4,1.6,7,3.2,10.8,2.8s7.5-3.2,7.5-7
	c-0.6,8.8-1,17.8,0.5,26.5c0.6,3.5,1.5,6.9,1.8,10.4c1.1,12.6-5.5,25.3-3.1,37.7c0.8,3.8-0.9,7.8-4.3,9.8c-3.4,1.8-7.4,2.1-11.1,3
	c-7.3,1.9-13.7,6.5-21.1,8.3c-3.4,0.8-7,1-10.4,1.9c-4.9,1.3-9.3,4.1-14.2,4.9c-3.7,0.7-7.5,0.2-11.3,0.5c-3.3,0.3-6.5,1.1-9.7,1.2
	c-8,0.2-15.6-4.3-20.9-10.3S201.1,275.5,197.8,268.3z"/>
<path class="st9" d="M557.4,280.5c38,0,68.8,30.8,68.8,68.8s-30.8,68.8-68.8,68.8c-38,0-68.8-30.8-68.8-68.8c0,0,0,0,0,0
	C488.6,311.4,519.4,280.5,557.4,280.5 M557.4,263.5c-47.4,0-85.8,38.4-85.8,85.8c0,47.4,38.4,85.8,85.8,85.8
	c47.4,0,85.8-38.4,85.8-85.8c0,0,0,0,0,0C643.2,302,604.8,263.6,557.4,263.5z"/>
<rect x="544.7" y="243.5" class="st9" width="20.1" height="21.2"/>
<rect x="593.3" y="256.3" transform="matrix(0.515 -0.8572 0.8572 0.515 64.5712 646.7691)" class="st9" width="21.2" height="20.1"/>
<rect x="628.6" y="290.6" transform="matrix(0.8746 -0.4848 0.4848 0.8746 -65.6316 347.5757)" class="st9" width="21.2" height="20.1"/>
<rect x="629.6" y="386.7" transform="matrix(0.5299 -0.848 0.848 0.5299 -36.2417 729.2092)" class="st9" width="20.1" height="21.2"/>
<rect x="465.6" y="290.1" transform="matrix(0.4848 -0.8746 0.8746 0.4848 -17.93 570.9016)" class="st9" width="20.1" height="21.2"/>
<rect x="464.6" y="387.2" transform="matrix(0.848 -0.5299 0.5299 0.848 -138.3281 312.1681)" class="st9" width="21.2" height="20.1"/>
<rect x="500.9" y="255.7" transform="matrix(0.8572 -0.515 0.515 0.8572 -64.1867 301.1872)" class="st9" width="20.1" height="21.2"/>
<rect x="544.7" y="434.1" class="st9" width="20.1" height="21.2"/>
<rect x="593.8" y="421.9" transform="matrix(0.8572 -0.515 0.515 0.8572 -136.4734 372.7827)" class="st9" width="20.1" height="21.2"/>
<rect x="500.3" y="422.4" transform="matrix(0.515 -0.8572 0.8572 0.515 -122.896 647.6747)" class="st9" width="21.2" height="20.1"/>
<rect x="449.4" y="340.9" class="st9" width="24.4" height="18"/>
<rect x="641.1" y="340.9" class="st9" width="24.4" height="18"/>
<path class="st9" d="M717.3,156.6c38,0,68.8,30.8,68.8,68.8s-30.8,68.8-68.8,68.8s-68.8-30.8-68.8-68.8c0,0,0,0,0,0
	C648.5,187.5,679.3,156.6,717.3,156.6 M717.3,139.6c-47.4,0-85.8,38.4-85.8,85.8s38.4,85.8,85.8,85.8s85.8-38.4,85.8-85.8
	c0,0,0,0,0,0C803.1,178.1,764.7,139.7,717.3,139.6z"/>
<rect x="704.6" y="119.6" class="st9" width="20.1" height="21.2"/>
<rect x="753.2" y="132.3" transform="matrix(0.515 -0.8572 0.8572 0.515 248.3468 723.7581)" class="st9" width="21.2" height="20.1"/>
<rect x="788.5" y="166.7" transform="matrix(0.8746 -0.4848 0.4848 0.8746 14.4944 409.5725)" class="st9" width="21.2" height="20.1"/>
<rect x="789.5" y="262.8" transform="matrix(0.5299 -0.848 0.848 0.5299 144.0119 806.5798)" class="st9" width="20.1" height="21.2"/>
<rect x="625.5" y="166.2" transform="matrix(0.4848 -0.8746 0.8746 0.4848 172.8195 646.9338)" class="st9" width="20.1" height="21.2"/>
<rect x="624.5" y="263.3" transform="matrix(0.848 -0.5299 0.5299 0.848 -48.3702 378.0836)" class="st9" width="21.2" height="20.1"/>
<rect x="660.8" y="131.8" transform="matrix(0.8572 -0.515 0.515 0.8572 22.4753 365.8533)" class="st9" width="20.1" height="21.2"/>
<rect x="704.6" y="310.2" class="st9" width="20.1" height="21.2"/>
<rect x="753.7" y="297.9" transform="matrix(0.8572 -0.515 0.515 0.8572 -49.8151 437.4496)" class="st9" width="20.1" height="21.2"/>
<rect x="660.3" y="298.5" transform="matrix(0.515 -0.8572 0.8572 0.515 60.8702 724.654)" class="st9" width="21.2" height="20.1"/>
<rect x="609.3" y="217" class="st9" width="24.4" height="18"/>
<rect x="801" y="217" class="st9" width="24.4" height="18"/>
<path class="st9" d="M397.4,151.3c0.8,0,1.6,0,2.4,0c38,1.3,67.7,33.1,66.5,71.1c-1.3,37.1-31.7,66.5-68.8,66.5c-0.8,0-1.6,0-2.4,0
	c-38-1.3-67.7-33.1-66.5-71.1C329.9,180.7,360.3,151.3,397.4,151.3 M397.4,134.3L397.4,134.3c-47.4,0-85.8,38.4-85.9,85.8
	c0,46.3,36.7,84.2,82.9,85.8c1,0,2,0,3,0c47.4,0,85.8-38.4,85.8-85.8c0-46.3-36.7-84.2-82.9-85.8
	C399.4,134.4,398.4,134.3,397.4,134.3L397.4,134.3z"/>
<rect x="387.5" y="114.8" transform="matrix(3.472507e-02 -0.9994 0.9994 3.472507e-02 259.5386 518.3969)" class="st9" width="21.2" height="20.1"/>
<rect x="436.2" y="128.7" transform="matrix(0.5445 -0.8388 0.8388 0.5445 87.1051 437.9641)" class="st9" width="21.2" height="20.1"/>
<rect x="470.3" y="164.3" transform="matrix(0.8909 -0.4541 0.4541 0.8909 -26.7274 237.4068)" class="st9" width="21.2" height="20.1"/>
<rect x="468" y="260.3" transform="matrix(0.559 -0.8291 0.8291 0.559 -13.8287 515.7872)" class="st9" width="20.1" height="21.2"/>
<rect x="307.4" y="158.1" transform="matrix(0.5149 -0.8573 0.8573 0.5149 9.4146 353.9428)" class="st9" width="20.1" height="21.2"/>
<rect x="301.5" y="256.7" transform="matrix(0.867 -0.4983 0.4983 0.867 -91.4343 191.0323)" class="st9" width="21.3" height="20.2"/>
<rect x="343.9" y="124.9" transform="matrix(0.8745 -0.485 0.485 0.8745 -21.3222 188.6476)" class="st9" width="20.1" height="21.2"/>
<rect x="380.9" y="305.3" transform="matrix(3.472507e-02 -0.9994 0.9994 3.472507e-02 62.766 695.6797)" class="st9" width="21.2" height="20.1"/>
<rect x="431" y="294.2" transform="matrix(0.8745 -0.485 0.485 0.8745 -92.4915 252.1339)" class="st9" width="20.1" height="21.2"/>
<rect x="337.6" y="291.5" transform="matrix(0.5445 -0.8388 0.8388 0.5445 -94.3522 429.4066)" class="st9" width="21.2" height="20.1"/>
<rect x="292.7" y="205.2" transform="matrix(3.472507e-02 -0.9994 0.9994 3.472507e-02 73.9436 511.3305)" class="st9" width="18" height="24.4"/>
<rect x="484.3" y="211.8" transform="matrix(3.472517e-02 -0.9994 0.9994 3.472517e-02 252.2532 709.2006)" class="st9" width="18" height="24.4"/>
<path class="st7" d="M175.8,659.1c-2.5,0.3-4.9,1.1-7.1,2.2c-3,1.8-4.9,5.1-6.2,8.3c-3.3,8.2-4,17.2-4.1,26
	c-0.1,7.1,0.1,14.4,2.7,21c0.7,2.1,1.9,4,3.5,5.5c1.4,1.1,3.1,1.9,4.8,2.3c3.8,1,8.2,1,11.3-1.4c3.5-2.7,4.3-7.5,5.1-11.8
	c1-5.8,2.4-12,6.7-16.1c3.2-3,7.8-4.5,10.2-8.2c2.8-4.4,1.3-10.2-0.5-15.1c-1.5-4.3-3.8-12.9-8.3-15.1S180.4,658.3,175.8,659.1z"/>
<path class="st7" d="M340.2,680.1c-1.3,4.8-3.7,9.2-7,12.9c-2,2.3-4.5,5-3.4,7.9c0.4,1,1.1,1.8,1.9,2.5
	c14.7,14.3,35.2,21.3,55.5,23.9c0.3,0.1,0.7,0.1,1,0c0.6-0.3,0.7-1,0.8-1.7c0.3-2.1,0.3-4.3,0-6.4c-1-5-5.4-8.5-9.6-11.2
	s-8.9-5.4-11.3-9.9c-3-5.6-1.7-12.8-5.2-18c-2.9-4.2-8.2-6-13.2-6.8c-1.8-0.3-5.5-2.2-7-1.3C341.1,672.8,340.8,678.3,340.2,680.1z"
	/>
<path class="st9" d="M173.8,658.6c0-1-0.8-1.9-1.8-2c-1-0.1-2,0-2.9,0.4c-2.3,0.6-4.6,1.1-7,1.3c-2.8,0.3-5.7,0.3-8.4,1
	s-5.4,2.4-6.5,5c-0.5,1.5-0.8,3.1-0.7,4.7c-0.1,6.1,0.7,12.3,2.2,18.2c0.1,0.5,0.3,0.9,0.7,1.2c0.4,0.1,0.8,0,1.1,0.2
	c0.3,0.2,0.5,0.5,0.6,0.8c1.7,3.8,2.1,8,2.5,12.2c0.7,6.1,1.5,12.2,2.5,18.3c0.6,3.5,1.3,7.3,3.7,10c2.6,3,6.6,4.3,10.5,4.8
	c8.3,1.1,16.6-0.6,24.8-2.3c1.6-0.2,3-0.8,4.2-1.9c0.7-0.9,1.1-2.1,1-3.3c-0.2-4.1-3.9-7-7.3-9.2l-4.7-3.2c-0.3-0.2-0.6-0.4-0.8-0.7
	c-0.2-0.5-0.3-1-0.2-1.5l0.3-6c-6.3,0.1-12.1,3.7-15,9.3c-0.6,1.3-1.3,2.8-2.6,3.3c-1.7,0.6-3.5-0.8-4.1-2.5
	c-0.4-1.7-0.3-3.6,0.1-5.3c2.7-14.7,2.1-29.8,3.8-44.6c0.1-1.7,0.6-3.3,1.5-4.7C172.1,660.9,173.6,660,173.8,658.6z"/>
<path class="st9" d="M378,715.5c0.7,1.1,1.8,2,2.4,3.2s0.6,2.9-0.5,3.6c-0.7,0.3-1.4,0.4-2.2,0.2c-14.7-1.8-28.5-8.1-39.5-17.9
	c-1.8-1.6-3.5-3.3-4.8-5.3c-1.3-2-2.4-4.3-4.6-5.2c-1.3,5.7-2,11.5-2,17.4c0,3.8,0.5,8.3,3.7,10.5c1.3,0.8,2.6,1.3,4.1,1.7l6.9,1.9
	c1.2,0.5,2.5,0.6,3.8,0.4c0.8-0.2,1.5-0.7,2.4-0.9c0.9-0.1,1.8,0,2.7,0.3l5.9,1.7c2,0.5,4,1.2,5.9,2c1.7,0.8,3.3,1.8,4.9,2.7
	c2.8,1.4,5.6,2.6,8.6,3.5L386,739c2.9,1.1,5.8,1.9,8.9,2.3c2.1,0.2,4.2,0,6.3,0.4c1.6,0.3,3.1,0.8,4.7,1c2.6,0.1,5.2-0.7,7.4-2.2
	c0.8-0.5,1.6-1.1,2.1-1.9c1.5-2.3,0.2-5.4-1.3-7.8c-2.7-4.3-6.1-8.4-10.6-10.9c-1.8-1-3.8-1.7-5.6-2.7c-5.3-2.6-9.4-6.9-14.4-9.8
	C378.8,704.7,375.8,711.8,378,715.5z"/>
<path class="st7" d="M231.4,295.2c-5.5,3.8-11.8,6.2-18.5,7.2c-3.5,0.4-7,0.6-10.5,0.6c-14.6,0-29.1-1.2-43.5-3.6
	c5.7-6.3,11.5-13,13.7-21.3c1.1-4.4,1.3-8.9,0.6-13.3c-0.9-5.7-2.2-11.3-4.1-16.8c6.1,0.3,12.3,0.2,18.4-0.5c3.5-0.4,12-3.5,15-1.1
	c2.8,2.2,0.7,10.1,0.6,13.8c0,0.1,0,0.3,0,0.4c0.2,5.5,1.3,11,3.5,16.1C211.2,286.4,220.6,294.5,231.4,295.2z"/>
<path class="st8" d="M203.3,260.1c-8.9,5.8-19.8,7.5-30,4.6c-0.9-5.7-2.2-11.3-4.1-16.8c6.1,0.3,12.3,0.2,18.4-0.5
	c3.5-0.4,12-3.5,15-1.1C205.5,248.6,203.4,256.4,203.3,260.1z"/>
<circle class="st7" cx="183.3" cy="227.7" r="36.6"/>
<path class="st2" d="M338.6,412.9c0,6-3.1,11.6-8.3,14.7c-2.8,1.5-5.9,2.5-9,3.1c-16.7,4-33.9,7.3-51.1,6.3
	c-3.7-0.2-7.5-0.6-10.8-2.3s-6.2-4.7-6.7-8.4c0-0.9-0.2-1.8-0.5-2.7c-0.7-0.9-1.5-1.7-2.5-2.3c-3.2-2.4-4.7-6.4-3.9-10.3
	c-2.1,0.9-4.3-1.2-5.3-3.2c-1-2.1-1.8-4.6-3.9-5.4c-1.4-0.6-3.1-0.3-4.6-0.6c-2.4-0.6-3.9-3-5.6-4.8c-3.5-3.7-8.4-5.6-12.9-7.9
	c-13.5-6.8-24.5-17.5-35.2-28.1c-5.4-5.3-10.9-10.7-15.1-17c-1.2-1.8-2.3-3.6-3.3-5.5c-3.3-6.2-6.1-12.7-8.4-19.3
	c-1.4-3.5-2.7-7.3-2.2-11c0-0.3,0.1-0.7,0.2-1c0.7-2.4,1.8-4.7,3.3-6.7c3.7-5.5,8.6-10.7,15-12.3s12.8,0.4,19.3,1.7
	c2.2,0.5,4.3,0.8,6.5,1c6.9,0.5,13.7-1.4,20.4-3.2l7.3-2c3.6-1,5.5-5.4,9.1-6.2c1.6-0.2,3.3-0.2,4.9,0.3c7.5,1.4,15,3.3,21.6,7
	c1.5,0.8,2.9,1.8,4.2,2.9c4.7,3.7,8.4,8.6,9.7,14.4c1.5,6.3,0.1,13.1,1.6,19.4c1.2,5.2,4.4,9.8,7.5,14.2l17.9,25.5
	c4,6,8.4,11.7,13.1,17.1C320.5,390.9,338.3,398.8,338.6,412.9z"/>
<path class="st7" d="M290.8,168.3c0.7-3.5,1.3-7.1,3.2-10.2c1.3-1.9,2.9-3.6,4.7-5c3.1-2.6,6.3-5.1,10.1-6.3s8.3-1.1,11.5,1.3
	s4.5,6.6,5,10.6c0.7,5.5,0,11.2-2.7,16c-3.1,5.4-8.5,9-13,13.3c-3.3,3.1-6.1,6.7-8.5,10.6c-1.1,2-2.4,3.9-3.9,5.6
	c-1.5,1.7-3.8,2.7-6.1,2.5c-1.9-0.3-3.5-1.6-5-2.9c-1.9-1.6-6.8-4.5-7-7.1c-0.1-2.1,3.8-6.8,4.7-8.8
	C287,181.7,289.3,175.1,290.8,168.3z"/>
<path class="st9" d="M419.5,592.3c-4.6,8.5-9.6,16.8-13.7,25.5c-2.4,5.1-4.5,10.4-7.1,15.3c-2.9,5.4-6.5,10.5-9.5,15.8
	c-7.6,13.5-11.9,28.8-15.8,43.8c-11-1.6-21.6-5.4-31.2-11c-0.6-0.4-1.3-0.8-1.9-1.2c-2.6-1.8-4.7-4.2-6.3-6.9
	c3.6-13.7,7.4-27.7,14.8-39.8c2.4-4,5.2-7.7,7.6-11.5c7.2-11.3,8.7-25.6,16.9-36.1c1.6-2.2,1.6-5.2,0-7.4c-1-1.2-2.5-2.4-2.2-3.9
	c0.2-1.1,1.4-2.1,0.9-3.2c-0.2-0.5-0.7-0.8-1.1-1.1c-1.4-1.3-1.2-3.5-1.3-5.4c-0.3-4.8-3.2-9-6-12.9c-0.6-0.9-1.3-1.7-2.2-2.4
	c-0.7-0.5-1.6-0.7-2.4-1.1c-2.6-1.6-2.4-5.5-3.7-8.3c-1.6-3.7-5.8-5.6-8.5-8.7c-3.5-3.8-4.3-9.2-8-12.6c-0.4-0.4-0.8-0.7-1.2-1
	c1.8,5.7,2,11.7,2.1,17.6c0.4,20.4-4.8,41.5-2.4,61.8c1.9,16.1-8,32.1-22,40.1c-5.4,3.1-11.3,5.1-17.2,7.2
	c-8.8,3.1-17.5,6.3-26.2,9.9c-6.1,2.5-12.1,5.2-18,8.2c-7.3,3.5-14.4,7.5-21.3,11.8c-8.5,5.4-16.9,10.8-22.9,18.9
	c-5.8-0.2-11.1-3.7-14.8-8.2s-6-10-8.1-15.4c-1.9-4.7-3.7-9.5-3.9-14.5c0.1-1.1,0.7-2.1,1.7-2.5l40.2-21.3l7.5-4
	c16.5-8.7,33.5-16.8,49.9-25.5c1.1,0.3,2-0.9,2.3-2s0.6-2.5,1.6-2.9c0.5-0.3,1.2-0.2,1.6-0.7c0.3-0.4,0.4-0.9,0.3-1.3
	c-0.5-8-6.3-15.3-5.1-23.2c0.5-3.4,2.2-6.7,1.5-10c-0.5-2.3-2.2-4.1-3.1-6.3c-2-4.8,0-10.7-2.2-15.4c-1.4-3.1-2.4-6.4-2.9-9.8
	c-1-6.8-3.1-13.4-6.1-19.5c-1.5-3.1-3.4-6-5.6-8.5c-1.2-1.3-2.6-2.5-3.7-3.8c-3.5-4.1-4.8-9.7-5.8-15c-1.8-9.7-3-19.7-0.8-29.3
	c0.8-3.3,1.9-6.5,1.9-9.9c0-4.4-2-9.6,1.1-12.8c1.3-1.1,2.8-1.9,4.5-2.3c7.1-2.1,14.5-3.1,21.8-4l33.6-4.4c3.8-0.5,7.8-1,11.2-2.9
	c4.5-2.5,7.6-7.2,9.4-12c5.9,4.3,8.1,12.3,12.8,17.9c2.3,2.7,5.1,4.9,7.6,7.4c3.1,3.2,5.9,6.7,8.4,10.4c7,9.6,14,19.3,19,30.1
	c2.6,5.6,4.6,11.4,6.7,17.3c8.2,22.9,21.5,44.6,27.1,68.2c1.4,5.8,4.9,11,5.4,16.9C425.4,580.6,422.5,586.7,419.5,592.3z"/>
<path class="st8" d="M243.8,402.3c-0.8,1.5-1.2,3.2-1.2,5c0.8-3.7,5.8-5.8,6.2-9.4c0.1-1.7-0.2-1.6-1.2-0.7
	C245.9,398.5,245.2,400.9,243.8,402.3z"/>
<path class="st8" d="M259.3,413.6c-1.1,0.9-1.9,2.1-2.3,3.4c-0.9,1.9-1,4-0.5,6c0.8-0.4,1-1.3,1.2-2.1c0.4-1.2,0.9-2.4,1.6-3.5
	c0.6-1,3.4-3.2,3.4-4.3C262.6,411.5,260,413,259.3,413.6z"/>
<path class="st8" d="M261.1,289.7c-2.4,2-4.9,3.8-7.7,5.1c-7.3,3.7-15.3,5.6-22.6,9.2c-3.6,1.8-7.1,3.9-10.5,6.1l-21.7,13.8
	c-1.7,1-3.4,2.2-4.8,3.6c-2.6,2.8-2.6,7.7-5,10.7s-6.5,4.7-10.5,4.9c-4,0-8-0.7-11.7-2c-2.3-0.7-4.5-1.5-6.7-2.4
	c-2.3-1-4.4-2.2-6.4-3.7c-3.9-2.9-7-7.2-7.6-12c-0.3-3.3,0.2-6.6,1.3-9.8c0.6-2,1.4-4,2.3-5.9c0.5-1.1,1.1-2.1,1.8-3.1
	c5-7.1,13.8-10.4,22.3-12c4.5-0.9,9-1.4,13.5-2.2c2.2,0.5,4.3,0.8,6.5,1c6.9,0.5,13.7-1.4,20.4-3.2l7.3-2c3.6-1,5.5-5.4,9.1-6.2
	c1.6-0.2,3.3-0.2,4.9,0.3c7.5,1.4,15,3.3,21.6,7C258.3,287.7,259.7,288.6,261.1,289.7z"/>
<path class="st2" d="M278.8,192.6c-0.9,8.9-8.4,15.4-13,23c-2.2,3.7-3.8,7.8-5.8,11.6c-2.3,4.2-4.8,8.2-7.6,12.1l-8.1,11.8
	c-4.8,6.9-9.6,13.9-15.7,19.8c-10.6,1.8-19.6,9.7-29.7,13.6c-8.1,3.1-16.9,3.5-25.4,5.1s-17.3,5-22.3,12c-1.9,2.8-3.3,5.8-4.2,9
	c-1.1,3.1-1.6,6.5-1.3,9.8c0.6,4.8,3.7,9.1,7.6,12c3.9,2.9,8.5,4.7,13.1,6.1c3.8,1.3,7.7,2,11.7,2c4-0.2,8.1-1.7,10.5-4.9
	s2.4-7.9,5-10.6c1.4-1.4,3-2.6,4.8-3.6l21.7-13.8c3.4-2.2,6.9-4.2,10.5-6.1c7.3-3.6,15.3-5.5,22.6-9.2c7.3-3.7,14-9.7,15.5-17.7
	c4.4-24.6,21.4-45.3,36-65.6c-0.5-0.1-0.3-1.2-0.5-1.6c-1.9-4.8-6-8.5-10.7-10.7S283.8,193.6,278.8,192.6z"/>
<circle class="st10" cx="187.5" cy="225.2" r="5.7"/>
<path class="st9" d="M202,192.7c0.3-2.7-0.3-5.4-1.5-7.7c-2.4-4-7.5-5.4-12-6.4c-4.4-0.9-8.8-1.7-13.2-2.3c-3.6-0.5-7.4-1-11-0.2
	c-5,1.1-9.1,4.4-13.7,6.5c-5.5,2.4-11.5,3.1-17.4,4.4c-5.8,1.4-11.8,3.6-15.5,8.4c-2.8,3.6-3.9,8.2-4.7,12.7
	c-6.9,37.4,0.5,75.7,1.9,113.7c0.6,14.8-0.1,30.6-8.6,42.8l24.6-0.7c6.3-0.2,13.1-0.5,18-4.4c4.4-3.4,6.4-8.9,8.3-14.1
	c1.5-4.1,3-8.3,3.1-12.7c0.4-8.9-4.7-17.7-3-26.5c1.2-6.6,6-11.9,11.1-16.2c5.1-4.3,10.8-8,14.9-13.3c7.4-9.3,8.8-22.1,7.9-33.9
	c-0.5-7-1.8-14.1-1.2-21.1c0.5-5.3,2.1-10.7,5.6-14.8C199.7,202.3,201.7,199.3,202,192.7z"/>
<path class="st8" d="M200.5,185c-2.4-3.9-7.3-5.4-11.8-6.3c2.4,0.9,4.4,2.5,5.8,4.6c1.3,2.4,1.8,5.1,1.5,7.7
	c-0.3,6.6-2.4,9.5-6.3,14.2c-3.5,4.1-5.1,9.5-5.6,14.8c-0.6,7,0.6,14.1,1.2,21.1c0.9,11.9-0.5,24.6-7.9,33.9
	c-4.1,5.2-9.8,9-14.9,13.3c-5.1,4.3-9.9,9.6-11.1,16.2c-1.6,8.8,3.4,17.6,3,26.5c-0.2,4.4-1.7,8.5-3.1,12.7
	c-1.9,5.2-3.9,10.7-8.3,14.1c-5,3.9-11.7,4.2-18,4.4l-17.4,0.5c-0.4,0.6-0.8,1.3-1.2,1.9L131,364c6.3-0.2,13.1-0.5,18-4.4
	c4.4-3.4,6.4-8.9,8.3-14.1c1.5-4.1,3-8.3,3.1-12.7c0.4-8.9-4.7-17.7-3-26.5c1.2-6.6,6-11.9,11.1-16.2c5.1-4.3,10.8-8,14.9-13.3
	c7.4-9.3,8.8-22.1,7.9-33.9c-0.5-7-1.8-14.1-1.2-21.1c0.5-5.3,2.1-10.7,5.6-14.8c3.9-4.7,6-7.6,6.3-14.2
	C202.3,190.1,201.8,187.4,200.5,185z"/>
<path class="st8" d="M385.4,570.4l-45.2,110.2c-2.6-1.8-4.7-4.2-6.3-6.9c3.6-13.7,7.4-27.7,14.8-39.8c2.4-4,5.2-7.7,7.6-11.5
	c7.2-11.3,8.7-25.6,16.9-36.1c1.6-2.2,1.6-5.2,0-7.4c-1-1.2-2.5-2.4-2.2-3.9c0.2-1.1,1.4-2.1,0.9-3.2c-0.2-0.5-0.7-0.8-1.1-1.1
	c-1.4-1.3-1.2-3.5-1.3-5.4c-0.3-4.8-3.2-9-6-12.9c-0.6-0.9-1.3-1.7-2.2-2.4c-0.7-0.5-1.6-0.7-2.4-1.1c-2.6-1.6-2.4-5.5-3.7-8.3
	c-1.6-3.7-5.8-5.6-8.5-8.7c-3.5-3.8-4.3-9.2-8-12.6l-0.3-0.8l3.5-21.3L385.4,570.4z"/>
<circle class="st10" cx="202.1" cy="215.3" r="5.7"/>
<circle class="st11" cx="203.4" cy="237.5" r="9.7"/>
<path class="st12" d="M164.1,213.5c0,0-2.9,17.5,0,16.2c2.9-1.3,9.7-0.1,4.8-8.2C164.1,213.5,164.1,213.5,164.1,213.5z"/>
</svg>
