<?xml version="1.0" encoding="utf-8"?>
<!-- Generator: Adobe Illustrator 25.1.0, SVG Export Plug-In . SVG Version: 6.00 Build 0)  -->
<svg version="1.1" id="Calque_1" xmlns="http://www.w3.org/2000/svg" xmlns:xlink="http://www.w3.org/1999/xlink" x="0px" y="0px"
	 viewBox="0 0 1920 835.3" style="enable-background:new 0 0 1920 835.3;" xml:space="preserve">
<style type="text/css">
	.st0{fill:url(#SVGID_1_);}
</style>
<linearGradient id="SVGID_1_" gradientUnits="userSpaceOnUse" x1="1833.8535" y1="891.1511" x2="-1466.7267" y2="39.2667" gradientTransform="matrix(1 0 0 -1 0 1080)">
	<stop  offset="0" style="stop-color:#380055"/>
	<stop  offset="0.136" style="stop-color:#360659"/>
	<stop  offset="0.3246" style="stop-color:#311864"/>
	<stop  offset="0.5442" style="stop-color:#293675"/>
	<stop  offset="0.7849" style="stop-color:#1E5E8E"/>
	<stop  offset="1" style="stop-color:#1289A7"/>
</linearGradient>
<path class="st0" d="M0,835.3c0,0,298.5-122.5,523-60.3c154.3,42.7,426-49,482-87c71-25,570.2-414.9,644.5-322.5
	c134.2,166.8,289.7,25.1,270.5,30.6L1922,0c0,0-141.5,132.5-538.5,132.5c-333.9,0-578.7,138.7-648.1,182.7
	c-11.4,7.2-79.7,52.1-93.4,62.8c-76.4,59.5-373.7,343.8-380,123C260,384,86,204,0,453V835.3z"/>
</svg>
