<?xml version="1.0" encoding="utf-8"?>
<!-- Generator: Adobe Illustrator 25.1.0, SVG Export Plug-In . SVG Version: 6.00 Build 0)  -->
<svg version="1.1" id="Calque_1" xmlns="http://www.w3.org/2000/svg" xmlns:xlink="http://www.w3.org/1999/xlink" x="0px" y="0px"
	 viewBox="0 0 1922 835.3" style="enable-background:new 0 0 1922 835.3;" xml:space="preserve">
<style type="text/css">
	.st0{fill:url(#SVGID_1_);}
	.st1{fill:url(#SVGID_2_);}
	.st2{fill:url(#SVGID_3_);}
	.st3{fill:url(#SVGID_4_);}
	.st4{fill:url(#SVGID_5_);}
</style>
<linearGradient id="SVGID_1_" gradientUnits="userSpaceOnUse" x1="1827.567" y1="673.4931" x2="-1473.0132" y2="-178.3865" gradientTransform="matrix(1 0 0 -1 0 838)">
	<stop  offset="0" style="stop-color:#380055"/>
	<stop  offset="0.14" style="stop-color:#360659"/>
	<stop  offset="0.32" style="stop-color:#311864"/>
	<stop  offset="0.54" style="stop-color:#293675"/>
	<stop  offset="0.78" style="stop-color:#1E5E8E"/>
	<stop  offset="1" style="stop-color:#1289A7"/>
</linearGradient>
<path class="st0" d="M0,835.3c0,0,148.5-207.5,373-145.3c123.1,35.6,283.7-10.9,405-46c38-11,146-24,183-28
	c148.6-15.9,571.1-166.5,662-253.2c10.1-9.6,27.4,4.3,36.6,14.6c131.8,147.9,279.1,13.3,260.4,18.7L1922,0
	c0,0-141.5,132.5-538.5,132.5c-333.9,0-578.7,138.7-648.1,182.7c-11.4,7.2-79.7,52.1-93.4,62.8c-76.4,59.5-373.7,343.8-380,123
	C260,384,86,204,0,453V835.3z"/>
<linearGradient id="SVGID_2_" gradientUnits="userSpaceOnUse" x1="1078.6598" y1="555.1763" x2="1565.569" y2="514.6943" gradientTransform="matrix(0.558 0.8298 -0.8298 0.558 1402.3318 -871.9201)">
	<stop  offset="0" style="stop-color:#380055"/>
	<stop  offset="0.14" style="stop-color:#360659"/>
	<stop  offset="0.32" style="stop-color:#311864"/>
	<stop  offset="0.54" style="stop-color:#293675"/>
	<stop  offset="0.78" style="stop-color:#1E5E8E"/>
</linearGradient>
<path class="st1" d="M1650,464.8c32.6,53.8,106.9,101.6,142.2,71.9c43.1-36.4,47.1,84.1,19.9,105.6c-46,36.4-221.7-51.2-211.1-126.5
	C1605.4,484.8,1605.9,392.1,1650,464.8z"/>
<linearGradient id="SVGID_3_" gradientUnits="userSpaceOnUse" x1="329.8761" y1="205.992" x2="453.2784" y2="205.992">
	<stop  offset="0" style="stop-color:#380055"/>
	<stop  offset="0.14" style="stop-color:#360659"/>
	<stop  offset="0.32" style="stop-color:#311864"/>
	<stop  offset="0.54" style="stop-color:#293675"/>
	<stop  offset="0.78" style="stop-color:#1E5E8E"/>
</linearGradient>
<path class="st2" d="M330,218.4c-4.2-26.8,101.1-75.6,121-54c6.3,6.8-2.2,13.9-4,65c-0.3,7.2-0.4,15.2-6,20c-8,6.8-21.9,2.6-33-1
	C356.6,231.9,330.8,223.5,330,218.4z"/>
<linearGradient id="SVGID_4_" gradientUnits="userSpaceOnUse" x1="1023.9517" y1="-50.1254" x2="1147.354" y2="-50.1254" gradientTransform="matrix(-0.9999 1.165108e-02 -1.165108e-02 -0.9999 1590.5587 245.7241)">
	<stop  offset="0" style="stop-color:#380055"/>
	<stop  offset="0.14" style="stop-color:#360659"/>
	<stop  offset="0.32" style="stop-color:#311864"/>
	<stop  offset="0.54" style="stop-color:#293675"/>
	<stop  offset="0.78" style="stop-color:#1E5E8E"/>
</linearGradient>
<path class="st3" d="M567,295.4c4.5,26.7-100.3,76.8-120.4,55.4c-6.3-6.7,2-13.9,3.2-65c0.2-7.2,0.2-15.2,5.8-20.1
	c7.9-6.9,21.8-2.8,33,0.6C540.3,282.2,566.1,290.2,567,295.4z"/>
<linearGradient id="SVGID_5_" gradientUnits="userSpaceOnUse" x1="919.4059" y1="136.2578" x2="1043.6809" y2="136.2578" gradientTransform="matrix(-9.828895e-02 0.9952 -0.9952 -9.828895e-02 805.725 -793.0948)">
	<stop  offset="0" style="stop-color:#380055"/>
	<stop  offset="0.14" style="stop-color:#360659"/>
	<stop  offset="0.32" style="stop-color:#311864"/>
	<stop  offset="0.54" style="stop-color:#293675"/>
	<stop  offset="0.78" style="stop-color:#1E5E8E"/>
</linearGradient>
<path class="st4" d="M565.1,108c54.7,61.4,62.9,145,41.8,125.7c-6.8-6.3-13.6-3.5-64.3-10.4c-7.1-1-15.1-1.9-19.3-7.9
	c-6-8.6-0.4-22,4.2-32.7C549.1,133.1,558,100,565.1,108z"/>
</svg>
