<?xml version="1.0" encoding="utf-8"?>
<!-- Generator: Adobe Illustrator 25.1.0, SVG Export Plug-In . SVG Version: 6.00 Build 0)  -->
<svg version="1.1" id="Calque_1" xmlns="http://www.w3.org/2000/svg" xmlns:xlink="http://www.w3.org/1999/xlink" x="0px" y="0px"
	 viewBox="0 0 1922 835.3" style="enable-background:new 0 0 1922 835.3;" xml:space="preserve">
<style type="text/css">
	.st0{fill:url(#SVGID_1_);}
</style>
<linearGradient id="SVGID_1_" gradientUnits="userSpaceOnUse" x1="1827.5695" y1="164.5163" x2="-1473.0107" y2="1016.396">
	<stop  offset="0" style="stop-color:#380055"/>
	<stop  offset="0.14" style="stop-color:#360659"/>
	<stop  offset="0.32" style="stop-color:#311864"/>
	<stop  offset="0.54" style="stop-color:#293675"/>
	<stop  offset="0.78" style="stop-color:#1E5E8E"/>
	<stop  offset="1" style="stop-color:#1289A7"/>
</linearGradient>
<path class="st0" d="M0,835.3c0,0,148.5-207.5,373-145.3c123.1,35.6,283.7-10.9,405-46c38-11,146-24,183-28
	c148.6-15.9,571.1-166.5,662-253.2c10.1-9.6,27.4,4.3,36.6,14.6c131.8,147.9,279.1,13.3,260.4,18.7L1922,0
	c0,0-141.5,132.5-538.5,132.5c-333.9,0-578.7,138.7-648.1,182.7c-11.4,7.2-79.7,52.1-93.4,62.8c-76.4,59.5-373.7,343.8-380,123
	C260,384,86,204,0,453V835.3z"/>
</svg>
